<svg width="40" height="41" viewBox="0 0 40 41" fill="none" xmlns="http://www.w3.org/2000/svg">
<path d="M39.9822 2.36226C39.9498 1.29213 39.0642 0.441413 37.9831 0.441895H1.99911C0.895033 0.441895 0 1.32826 0 2.42165V38.0572C0 39.1506 0.895033 40.037 1.99911 40.037H37.9831C39.0872 40.037 39.9822 39.1506 39.9822 38.0572C39.9822 -5.87352 40.0222 3.74149 39.9822 2.36226ZM38.6495 2.36226L35.5442 12.7758L31.3194 11.2052V1.76173L37.9831 1.76173C38.3313 1.76063 38.6216 2.02516 38.6495 2.36886V2.36226ZM29.9867 11.5417L25.0755 24.9117L20.6575 19.9887V1.76173H29.9867V11.5417ZM19.3247 18.3587C15.3265 13.4357 15.2332 13.2839 15.1466 13.1915C15.021 13.0574 14.8448 12.9809 14.6601 12.9803C14.4869 12.9803 15.4131 12.9803 11.9947 12.9803C11.6266 12.9803 11.3283 13.2758 11.3283 13.6403C11.3283 14.0047 11.6266 14.3002 11.9947 14.3002H13.5473L9.99556 20.8994V1.76173H19.3247V18.3587ZM9.99556 23.704L14.7734 14.8347L19.3247 20.4704V38.7171H9.99556V23.704ZM20.6575 21.975C25.1422 26.9706 24.8423 26.6736 25.0355 26.766C25.2288 26.8584 25.1422 26.8386 27.9876 26.8386C28.3556 26.8386 28.6539 26.5432 28.6539 26.1787C28.6539 25.8142 28.3556 25.5188 27.9876 25.5188H26.275L29.9867 15.4088V38.7171H20.6575V21.975ZM1.99911 1.76173H8.66282V12.9803H7.33007C6.96205 12.9803 6.6637 13.2758 6.6637 13.6403C6.6637 14.0047 6.96205 14.3002 7.33007 14.3002H8.66282V23.3543L4.87117 29.6169L1.33274 31.1149V2.42165C1.33274 2.05719 1.63109 1.76173 1.99911 1.76173ZM1.33274 38.0572V32.5535L5.59085 30.7453C5.87072 30.6266 5.67748 30.8443 8.66282 25.9213V38.7171H1.99911C1.63109 38.7171 1.33274 38.4217 1.33274 38.0572ZM37.9831 38.7171H31.3194V26.8386H32.6522C33.0202 26.8386 33.3185 26.5432 33.3185 26.1787C33.3185 25.8142 33.0202 25.5188 32.6522 25.5188H31.3194V12.6108L35.7508 14.2606C35.9277 14.3337 36.1279 14.3278 36.3001 14.2444C36.4724 14.161 36.6 14.0082 36.6504 13.825L38.6495 7.00148V38.0572C38.6495 38.4217 38.3511 38.7171 37.9831 38.7171Z" fill="#3355FF"/>
<path d="M25.7952 28.3505C25.67 28.2255 25.4997 28.1553 25.322 28.1553C25.1444 28.1553 24.974 28.2255 24.8489 28.3505L22.8498 30.3302C22.6808 30.4976 22.6148 30.7416 22.6766 30.9703C22.7385 31.1989 22.9188 31.3775 23.1497 31.4388C23.3806 31.5001 23.627 31.4347 23.796 31.2673L24.6557 30.4094V34.7583C24.6557 35.1228 24.954 35.4182 25.322 35.4182C25.6901 35.4182 25.9884 35.1228 25.9884 34.7583V30.4094L26.848 31.2673C27.1093 31.5261 27.533 31.5261 27.7943 31.2673C28.0556 31.0086 28.0556 30.589 27.7943 30.3302L25.7952 28.3505Z" fill="#3355FF"/>
<path d="M14.187 11.4656C14.3121 11.5905 14.4825 11.6608 14.6601 11.6608C14.8378 11.6608 15.0081 11.5905 15.1333 11.4656L17.1324 9.48584C17.3014 9.31845 17.3674 9.07447 17.3056 8.84581C17.2437 8.61715 17.0633 8.43855 16.8324 8.37728C16.6015 8.31601 16.3552 8.38138 16.1861 8.54877L15.3265 9.40665V5.05786C15.3265 4.6934 15.0282 4.39795 14.6601 4.39795C14.2921 4.39795 13.9938 4.6934 13.9938 5.05786V9.40665L13.1342 8.54877C12.8729 8.29001 12.4492 8.29001 12.1879 8.54877C11.9266 8.80754 11.9266 9.22708 12.1879 9.48584L14.187 11.4656Z" fill="#3355FF"/>
<path d="M36.6503 25.5166H35.3176C34.9496 25.5166 34.6512 25.8116 34.6512 26.1754C34.6512 26.5393 34.9496 26.8342 35.3176 26.8342H36.6503C37.0184 26.8342 37.3167 26.5393 37.3167 26.1754C37.3167 25.8116 37.0184 25.5166 36.6503 25.5166Z" fill="#3355FF"/>
<path d="M3.33189 14.297H4.66463C5.03265 14.297 5.33099 14.0021 5.33099 13.6382C5.33099 13.2744 5.03265 12.9795 4.66463 12.9795H3.33189C2.96387 12.9795 2.66553 13.2744 2.66553 13.6382C2.66553 14.0021 2.96387 14.297 3.33189 14.297Z" fill="#3355FF"/>
</svg>
