<svg width="42" height="41" viewBox="0 0 42 41" fill="none" xmlns="http://www.w3.org/2000/svg">
<path d="M34.2424 0.625781C31.1507 0.625781 28.7212 3.54813 28.7212 7.17043C28.7212 10.7935 31.189 13.6706 34.2424 13.6706C37.2958 13.6706 39.8013 10.749 39.8013 7.12595C39.8013 3.50269 37.3334 0.625781 34.2424 0.625781ZM34.2424 12.1471C31.9003 12.1471 29.9909 9.90886 29.9909 7.12595C29.9909 4.34396 31.9373 2.14927 34.2424 2.14927C36.5845 2.14927 38.4939 4.38753 38.4939 7.17043C38.4939 9.95273 36.5851 12.1471 34.2424 12.1471Z" fill="#3355FF" stroke="#3355FF" stroke-width="0.1"/>
<mask id="path-2-outside-1_1_476" maskUnits="userSpaceOnUse" x="31.4688" y="1.94629" width="5" height="10" fill="black">
<rect fill="white" x="31.4688" y="1.94629" width="5" height="10"/>
<path d="M35.9779 8.15091C35.9402 8.01746 35.9402 7.92849 35.8647 7.79504C35.827 7.70607 35.7892 7.57262 35.7138 7.48365C35.6383 7.39469 35.6006 7.30572 35.5251 7.21675C35.4496 7.12778 35.3742 7.03881 35.261 6.99433C35.1855 6.90536 35.0723 6.86088 34.9968 6.8164C34.8836 6.77191 34.8082 6.68294 34.695 6.63846C34.5818 6.59398 34.4686 6.54949 34.3931 6.50501C34.3554 6.50501 34.2799 6.46052 34.2422 6.41604C34.2045 6.37156 34.129 6.37156 34.0913 6.32707C34.0535 6.28259 33.9781 6.28259 33.9403 6.2381C33.9026 6.19362 33.8649 6.14914 33.8271 6.10465C33.7894 6.06017 33.7517 6.01568 33.7517 5.92672C33.7139 5.88223 33.7139 5.79326 33.7139 5.74878C33.7139 5.65981 33.7139 5.61533 33.7139 5.52636C33.7139 5.48188 33.7517 5.39291 33.7517 5.34842C33.7894 5.30394 33.7894 5.21497 33.8271 5.17049C33.8649 5.126 33.9026 5.08152 33.9403 5.03704C33.9781 4.99255 34.0535 4.94807 34.129 4.94807C34.2045 4.90358 34.2422 4.90358 34.3177 4.90358C34.3554 4.90358 34.3931 4.90358 34.4308 4.90358C34.4686 4.90358 34.5063 4.90358 34.544 4.90358C34.6195 4.90358 34.6572 4.90358 34.7327 4.94807C34.8082 4.94807 34.8836 4.99255 34.9214 4.99255C34.9591 4.99255 35.0346 5.03704 35.0723 5.03704C35.1478 5.03704 35.1855 5.08152 35.2232 5.08152L35.4119 5.17049L35.4496 4.90358L35.5251 4.19184V4.0139L35.3742 3.96942C35.3364 3.96942 35.261 3.92494 35.2232 3.92494C35.1855 3.92494 35.1478 3.88045 35.0723 3.88045C35.0346 3.88045 34.9591 3.83597 34.8836 3.83597C34.8082 3.83597 34.7704 3.79148 34.695 3.79148H34.6572V3.16871V2.94629H34.4686H33.9403H33.7517V3.16871V3.83597H33.7139C33.6007 3.88045 33.4875 3.92494 33.3743 4.0139C33.2611 4.05839 33.1857 4.14736 33.1102 4.23632C33.0347 4.32529 32.9593 4.41426 32.8838 4.54771C32.8083 4.63668 32.7706 4.77013 32.7329 4.90358C32.6951 5.03704 32.6574 5.17049 32.6197 5.30394C32.5819 5.43739 32.5819 5.61533 32.5819 5.74878C32.5819 5.88223 32.5819 5.9712 32.6197 6.10465C32.6574 6.2381 32.6574 6.32707 32.7329 6.46052C32.7706 6.54949 32.8461 6.68294 32.8838 6.77191C32.9593 6.86088 32.997 6.94985 33.0725 7.03882C33.1479 7.12778 33.2234 7.21675 33.3366 7.26123C33.4121 7.3502 33.5253 7.39469 33.6007 7.43917C33.7139 7.48365 33.8271 7.57262 33.9026 7.61711C34.0158 7.66159 34.129 7.70607 34.2045 7.75056C34.2422 7.75056 34.3177 7.79504 34.3554 7.83953C34.3931 7.88401 34.4686 7.88401 34.5063 7.92849C34.544 7.97298 34.5818 8.01746 34.6195 8.01746C34.6572 8.06195 34.695 8.10643 34.7327 8.15091C34.7704 8.1954 34.7704 8.23988 34.8082 8.32885C34.8082 8.37333 34.8459 8.4623 34.8459 8.55127C34.8459 8.64024 34.8459 8.68472 34.8459 8.77369C34.8459 8.81817 34.8082 8.90714 34.7704 8.95163C34.7327 8.99611 34.695 9.04059 34.6572 9.08508C34.6195 9.12956 34.5818 9.17405 34.5063 9.21853C34.4686 9.26301 34.3931 9.26301 34.3554 9.3075C34.3177 9.3075 34.2422 9.35198 34.1667 9.35198C34.129 9.35198 34.0913 9.35198 34.0158 9.35198C33.9781 9.35198 33.9026 9.35198 33.8649 9.35198C33.7894 9.35198 33.7139 9.35198 33.6762 9.35198C33.6007 9.35198 33.5253 9.3075 33.4875 9.3075C33.4121 9.3075 33.3366 9.26301 33.2611 9.21853C33.1857 9.17405 33.1102 9.17405 33.0347 9.12956C32.997 9.12956 32.9593 9.08508 32.9215 9.08508C32.8838 9.08508 32.8461 9.04059 32.8083 9.04059L32.5819 8.90714L32.5442 9.21853L32.4688 10.0192V10.1527L32.5819 10.1972C32.7329 10.1527 32.8083 10.1972 32.9215 10.2417C32.997 10.2861 33.1102 10.3306 33.1857 10.3306C33.2611 10.3751 33.3743 10.3751 33.4875 10.4196C33.6007 10.4641 33.6762 10.4641 33.7894 10.4641H33.8649V11.1313V11.3538H34.0535H34.5818H34.7704V11.1313V10.4196H34.8082C34.9214 10.3751 35.0346 10.3306 35.1478 10.2417C35.261 10.1972 35.3364 10.1082 35.4496 10.0192C35.5251 9.93027 35.6006 9.8413 35.676 9.70785C35.7515 9.61889 35.7892 9.48543 35.8647 9.35198C35.9024 9.21853 35.9402 9.08508 35.9779 8.95163C36.0156 8.81817 36.0156 8.68472 36.0156 8.50679C36.0156 8.37333 36.0156 8.28437 35.9779 8.15091Z"/>
</mask>
<path d="M35.9779 8.15091C35.9402 8.01746 35.9402 7.92849 35.8647 7.79504C35.827 7.70607 35.7892 7.57262 35.7138 7.48365C35.6383 7.39469 35.6006 7.30572 35.5251 7.21675C35.4496 7.12778 35.3742 7.03881 35.261 6.99433C35.1855 6.90536 35.0723 6.86088 34.9968 6.8164C34.8836 6.77191 34.8082 6.68294 34.695 6.63846C34.5818 6.59398 34.4686 6.54949 34.3931 6.50501C34.3554 6.50501 34.2799 6.46052 34.2422 6.41604C34.2045 6.37156 34.129 6.37156 34.0913 6.32707C34.0535 6.28259 33.9781 6.28259 33.9403 6.2381C33.9026 6.19362 33.8649 6.14914 33.8271 6.10465C33.7894 6.06017 33.7517 6.01568 33.7517 5.92672C33.7139 5.88223 33.7139 5.79326 33.7139 5.74878C33.7139 5.65981 33.7139 5.61533 33.7139 5.52636C33.7139 5.48188 33.7517 5.39291 33.7517 5.34842C33.7894 5.30394 33.7894 5.21497 33.8271 5.17049C33.8649 5.126 33.9026 5.08152 33.9403 5.03704C33.9781 4.99255 34.0535 4.94807 34.129 4.94807C34.2045 4.90358 34.2422 4.90358 34.3177 4.90358C34.3554 4.90358 34.3931 4.90358 34.4308 4.90358C34.4686 4.90358 34.5063 4.90358 34.544 4.90358C34.6195 4.90358 34.6572 4.90358 34.7327 4.94807C34.8082 4.94807 34.8836 4.99255 34.9214 4.99255C34.9591 4.99255 35.0346 5.03704 35.0723 5.03704C35.1478 5.03704 35.1855 5.08152 35.2232 5.08152L35.4119 5.17049L35.4496 4.90358L35.5251 4.19184V4.0139L35.3742 3.96942C35.3364 3.96942 35.261 3.92494 35.2232 3.92494C35.1855 3.92494 35.1478 3.88045 35.0723 3.88045C35.0346 3.88045 34.9591 3.83597 34.8836 3.83597C34.8082 3.83597 34.7704 3.79148 34.695 3.79148H34.6572V3.16871V2.94629H34.4686H33.9403H33.7517V3.16871V3.83597H33.7139C33.6007 3.88045 33.4875 3.92494 33.3743 4.0139C33.2611 4.05839 33.1857 4.14736 33.1102 4.23632C33.0347 4.32529 32.9593 4.41426 32.8838 4.54771C32.8083 4.63668 32.7706 4.77013 32.7329 4.90358C32.6951 5.03704 32.6574 5.17049 32.6197 5.30394C32.5819 5.43739 32.5819 5.61533 32.5819 5.74878C32.5819 5.88223 32.5819 5.9712 32.6197 6.10465C32.6574 6.2381 32.6574 6.32707 32.7329 6.46052C32.7706 6.54949 32.8461 6.68294 32.8838 6.77191C32.9593 6.86088 32.997 6.94985 33.0725 7.03882C33.1479 7.12778 33.2234 7.21675 33.3366 7.26123C33.4121 7.3502 33.5253 7.39469 33.6007 7.43917C33.7139 7.48365 33.8271 7.57262 33.9026 7.61711C34.0158 7.66159 34.129 7.70607 34.2045 7.75056C34.2422 7.75056 34.3177 7.79504 34.3554 7.83953C34.3931 7.88401 34.4686 7.88401 34.5063 7.92849C34.544 7.97298 34.5818 8.01746 34.6195 8.01746C34.6572 8.06195 34.695 8.10643 34.7327 8.15091C34.7704 8.1954 34.7704 8.23988 34.8082 8.32885C34.8082 8.37333 34.8459 8.4623 34.8459 8.55127C34.8459 8.64024 34.8459 8.68472 34.8459 8.77369C34.8459 8.81817 34.8082 8.90714 34.7704 8.95163C34.7327 8.99611 34.695 9.04059 34.6572 9.08508C34.6195 9.12956 34.5818 9.17405 34.5063 9.21853C34.4686 9.26301 34.3931 9.26301 34.3554 9.3075C34.3177 9.3075 34.2422 9.35198 34.1667 9.35198C34.129 9.35198 34.0913 9.35198 34.0158 9.35198C33.9781 9.35198 33.9026 9.35198 33.8649 9.35198C33.7894 9.35198 33.7139 9.35198 33.6762 9.35198C33.6007 9.35198 33.5253 9.3075 33.4875 9.3075C33.4121 9.3075 33.3366 9.26301 33.2611 9.21853C33.1857 9.17405 33.1102 9.17405 33.0347 9.12956C32.997 9.12956 32.9593 9.08508 32.9215 9.08508C32.8838 9.08508 32.8461 9.04059 32.8083 9.04059L32.5819 8.90714L32.5442 9.21853L32.4688 10.0192V10.1527L32.5819 10.1972C32.7329 10.1527 32.8083 10.1972 32.9215 10.2417C32.997 10.2861 33.1102 10.3306 33.1857 10.3306C33.2611 10.3751 33.3743 10.3751 33.4875 10.4196C33.6007 10.4641 33.6762 10.4641 33.7894 10.4641H33.8649V11.1313V11.3538H34.0535H34.5818H34.7704V11.1313V10.4196H34.8082C34.9214 10.3751 35.0346 10.3306 35.1478 10.2417C35.261 10.1972 35.3364 10.1082 35.4496 10.0192C35.5251 9.93027 35.6006 9.8413 35.676 9.70785C35.7515 9.61889 35.7892 9.48543 35.8647 9.35198C35.9024 9.21853 35.9402 9.08508 35.9779 8.95163C36.0156 8.81817 36.0156 8.68472 36.0156 8.50679C36.0156 8.37333 36.0156 8.28437 35.9779 8.15091Z" fill="#3355FF"/>
<path d="M35.9779 8.15091C35.9402 8.01746 35.9402 7.92849 35.8647 7.79504C35.827 7.70607 35.7892 7.57262 35.7138 7.48365C35.6383 7.39469 35.6006 7.30572 35.5251 7.21675C35.4496 7.12778 35.3742 7.03881 35.261 6.99433C35.1855 6.90536 35.0723 6.86088 34.9968 6.8164C34.8836 6.77191 34.8082 6.68294 34.695 6.63846C34.5818 6.59398 34.4686 6.54949 34.3931 6.50501C34.3554 6.50501 34.2799 6.46052 34.2422 6.41604C34.2045 6.37156 34.129 6.37156 34.0913 6.32707C34.0535 6.28259 33.9781 6.28259 33.9403 6.2381C33.9026 6.19362 33.8649 6.14914 33.8271 6.10465C33.7894 6.06017 33.7517 6.01568 33.7517 5.92672C33.7139 5.88223 33.7139 5.79326 33.7139 5.74878C33.7139 5.65981 33.7139 5.61533 33.7139 5.52636C33.7139 5.48188 33.7517 5.39291 33.7517 5.34842C33.7894 5.30394 33.7894 5.21497 33.8271 5.17049C33.8649 5.126 33.9026 5.08152 33.9403 5.03704C33.9781 4.99255 34.0535 4.94807 34.129 4.94807C34.2045 4.90358 34.2422 4.90358 34.3177 4.90358C34.3554 4.90358 34.3931 4.90358 34.4308 4.90358C34.4686 4.90358 34.5063 4.90358 34.544 4.90358C34.6195 4.90358 34.6572 4.90358 34.7327 4.94807C34.8082 4.94807 34.8836 4.99255 34.9214 4.99255C34.9591 4.99255 35.0346 5.03704 35.0723 5.03704C35.1478 5.03704 35.1855 5.08152 35.2232 5.08152L35.4119 5.17049L35.4496 4.90358L35.5251 4.19184V4.0139L35.3742 3.96942C35.3364 3.96942 35.261 3.92494 35.2232 3.92494C35.1855 3.92494 35.1478 3.88045 35.0723 3.88045C35.0346 3.88045 34.9591 3.83597 34.8836 3.83597C34.8082 3.83597 34.7704 3.79148 34.695 3.79148H34.6572V3.16871V2.94629H34.4686H33.9403H33.7517V3.16871V3.83597H33.7139C33.6007 3.88045 33.4875 3.92494 33.3743 4.0139C33.2611 4.05839 33.1857 4.14736 33.1102 4.23632C33.0347 4.32529 32.9593 4.41426 32.8838 4.54771C32.8083 4.63668 32.7706 4.77013 32.7329 4.90358C32.6951 5.03704 32.6574 5.17049 32.6197 5.30394C32.5819 5.43739 32.5819 5.61533 32.5819 5.74878C32.5819 5.88223 32.5819 5.9712 32.6197 6.10465C32.6574 6.2381 32.6574 6.32707 32.7329 6.46052C32.7706 6.54949 32.8461 6.68294 32.8838 6.77191C32.9593 6.86088 32.997 6.94985 33.0725 7.03882C33.1479 7.12778 33.2234 7.21675 33.3366 7.26123C33.4121 7.3502 33.5253 7.39469 33.6007 7.43917C33.7139 7.48365 33.8271 7.57262 33.9026 7.61711C34.0158 7.66159 34.129 7.70607 34.2045 7.75056C34.2422 7.75056 34.3177 7.79504 34.3554 7.83953C34.3931 7.88401 34.4686 7.88401 34.5063 7.92849C34.544 7.97298 34.5818 8.01746 34.6195 8.01746C34.6572 8.06195 34.695 8.10643 34.7327 8.15091C34.7704 8.1954 34.7704 8.23988 34.8082 8.32885C34.8082 8.37333 34.8459 8.4623 34.8459 8.55127C34.8459 8.64024 34.8459 8.68472 34.8459 8.77369C34.8459 8.81817 34.8082 8.90714 34.7704 8.95163C34.7327 8.99611 34.695 9.04059 34.6572 9.08508C34.6195 9.12956 34.5818 9.17405 34.5063 9.21853C34.4686 9.26301 34.3931 9.26301 34.3554 9.3075C34.3177 9.3075 34.2422 9.35198 34.1667 9.35198C34.129 9.35198 34.0913 9.35198 34.0158 9.35198C33.9781 9.35198 33.9026 9.35198 33.8649 9.35198C33.7894 9.35198 33.7139 9.35198 33.6762 9.35198C33.6007 9.35198 33.5253 9.3075 33.4875 9.3075C33.4121 9.3075 33.3366 9.26301 33.2611 9.21853C33.1857 9.17405 33.1102 9.17405 33.0347 9.12956C32.997 9.12956 32.9593 9.08508 32.9215 9.08508C32.8838 9.08508 32.8461 9.04059 32.8083 9.04059L32.5819 8.90714L32.5442 9.21853L32.4688 10.0192V10.1527L32.5819 10.1972C32.7329 10.1527 32.8083 10.1972 32.9215 10.2417C32.997 10.2861 33.1102 10.3306 33.1857 10.3306C33.2611 10.3751 33.3743 10.3751 33.4875 10.4196C33.6007 10.4641 33.6762 10.4641 33.7894 10.4641H33.8649V11.1313V11.3538H34.0535H34.5818H34.7704V11.1313V10.4196H34.8082C34.9214 10.3751 35.0346 10.3306 35.1478 10.2417C35.261 10.1972 35.3364 10.1082 35.4496 10.0192C35.5251 9.93027 35.6006 9.8413 35.676 9.70785C35.7515 9.61889 35.7892 9.48543 35.8647 9.35198C35.9024 9.21853 35.9402 9.08508 35.9779 8.95163C36.0156 8.81817 36.0156 8.68472 36.0156 8.50679C36.0156 8.37333 36.0156 8.28437 35.9779 8.15091Z" stroke="#3355FF" stroke-width="0.2" mask="url(#path-2-outside-1_1_476)"/>
<path d="M30.701 14.289L30.701 14.2889L30.699 14.2908L24.6116 20.0054L16.7565 16.1506L16.7558 16.1503C16.5475 16.052 16.3002 16.1016 16.1358 16.2466C16.1357 16.2467 16.1355 16.2469 16.1354 16.247L7.68422 23.3634C7.40134 23.6016 7.3218 24.0726 7.52177 24.4046C7.64422 24.6438 7.85039 24.7417 8.05602 24.7417C8.18316 24.7417 8.30693 24.6915 8.4265 24.5975L8.42652 24.5975L8.42781 24.5964L16.5909 17.7226L24.4854 21.5783L24.486 21.5786C24.5911 21.6281 24.7147 21.6396 24.831 21.6217C24.9473 21.6039 25.0604 21.556 25.1442 21.4819L25.1442 21.4819L25.1452 21.481L31.5211 15.5212C31.6653 15.3992 31.7443 15.208 31.764 15.0106C31.7838 14.8124 31.7446 14.6011 31.6438 14.4348C31.4379 14.095 30.9866 14.0485 30.701 14.289Z" fill="#3355FF" stroke="#3355FF" stroke-width="0.1"/>
<path d="M40.4304 38.8006H37.6882V18.2545C37.6882 17.8345 37.4091 17.4927 37.0345 17.4927H31.4878C31.1132 17.4927 30.8341 17.8345 30.8341 18.2545V38.8006H28.8966V25.3719C28.8966 24.952 28.6174 24.6102 28.2428 24.6102H22.6584C22.2838 24.6102 22.0047 24.952 22.0047 25.3719V38.8006H20.0672V24.3043C20.0672 23.8844 19.788 23.5425 19.4134 23.5425H13.8668C13.4922 23.5425 13.213 23.8844 13.213 24.3043V38.8006H11.2755V28.4858C11.2755 28.0659 10.9964 27.724 10.6218 27.724H5.03737C4.66277 27.724 4.38365 28.0659 4.38365 28.4858V38.8006H1.60372C1.22911 38.8006 0.95 39.1424 0.95 39.5623C0.95 39.9822 1.22911 40.324 1.60372 40.324H4.99964H10.5463H13.8668H19.4134H22.6584H28.2051H31.4501H36.9968H40.3927C40.7666 40.324 41.0454 39.9835 41.0464 39.5646C41.0851 39.1418 40.8043 38.8006 40.4304 38.8006ZM9.93032 38.8006H5.69109V29.2475H9.93032V38.8006ZM18.7597 38.8006H14.5205V25.066H18.7597V38.8006ZM27.5514 38.8006H23.3121V26.1337H27.5514V38.8006ZM36.3808 38.8006H32.1415V19.0162H36.3808V38.8006Z" fill="#3355FF" stroke="#3355FF" stroke-width="0.1"/>
</svg>
