<svg width="1440" height="739" viewBox="0 0 1440 739" fill="none" xmlns="http://www.w3.org/2000/svg">
<path opacity="0.4" d="M1400.09 1.07196C1397.11 -0.357321 1392.29 -0.357321 1389.31 1.07196C1387.08 2.14392 1386.53 3.71217 1387.66 5.02235L1220.78 84.7049V185.291L1180.13 204.705V314.105L1040.88 380.606L1019.18 370.244L1126.56 318.968V258.998L1126.13 258.8L1004.04 200.497V180.149L1073.09 147.176C1076.06 148.209 1080.24 148.09 1082.93 146.819C1085.9 145.39 1085.9 143.087 1082.93 141.678C1079.95 140.248 1075.13 140.248 1072.15 141.678C1069.46 142.968 1069.22 144.953 1071.38 146.382L1002.34 179.355V201.33L1002.77 201.529L1124.86 259.832V318.174L1043.74 356.924V331.931L1080.94 314.164C1083.91 315.197 1088.09 315.078 1090.78 313.807C1093.75 312.378 1093.75 310.075 1090.78 308.666C1087.8 307.236 1082.98 307.236 1080 308.666C1077.31 309.956 1077.07 311.941 1079.23 313.37L1042.03 331.137V357.757L1017.5 369.47L988.488 355.614V312.1L1043.21 285.956V255.881L1042.78 255.683L927.552 200.655C929.712 199.226 929.472 197.241 926.784 195.951C923.808 194.521 918.984 194.521 916.008 195.951C913.032 197.38 913.032 199.683 916.008 201.092C918.696 202.383 922.872 202.482 925.848 201.45L1041.48 256.675V285.122L988.464 310.452V280.457L988.032 280.259L917.544 246.591C919.704 245.162 919.464 243.177 916.776 241.886C913.8 240.457 908.976 240.457 906 241.886C903.024 243.316 903.024 245.618 906 247.028C908.688 248.318 912.864 248.417 915.84 247.385L986.76 281.251V354.76L966.384 345.033L932.808 361.073L902.4 346.542V311.246L901.968 311.048L821.568 272.656V239.385C823.224 239.306 824.832 238.968 826.104 238.353C829.08 236.923 829.08 234.621 826.104 233.211C823.128 231.782 818.304 231.782 815.328 233.211C812.352 234.641 812.352 236.943 815.328 238.353C816.6 238.968 818.208 239.286 819.864 239.385V273.47L820.296 273.668L900.696 312.06V345.728L769.848 283.236V216.993L840.816 183.107H905.952L906.144 183.008L1017.91 129.648C1020.89 130.68 1025.06 130.561 1027.75 129.291C1030.73 127.861 1030.73 125.559 1027.75 124.149C1024.78 122.72 1019.95 122.72 1016.98 124.149C1014.29 125.439 1014.05 127.425 1016.21 128.854L905.496 181.717H843.768L1049.09 83.6726C1052.06 84.7049 1056.24 84.5858 1058.93 83.3153C1061.9 81.886 1061.9 79.5833 1058.93 78.1738C1055.95 76.7446 1051.13 76.7446 1048.15 78.1738C1045.46 79.4642 1045.22 81.4493 1047.38 82.8786L768.144 216.219V284.09L768.576 284.288L931.128 361.906L898.416 377.529L620.88 245.003V165.916L620.448 165.717L526.056 120.655C528.216 119.226 527.976 117.241 525.288 115.951C522.312 114.521 517.488 114.521 514.512 115.951C511.536 117.38 511.536 119.683 514.512 121.092C517.2 122.382 521.376 122.482 524.352 121.449L619.152 166.73V245.817L619.584 246.015L896.688 378.343L865.536 393.212L591.072 262.134H427.392L325.104 213.281V138.204C326.184 138.025 327.192 137.747 328.056 137.35C331.032 135.921 331.032 133.618 328.056 132.209C325.08 130.779 320.256 130.779 317.28 132.209C314.304 133.638 314.304 135.941 317.28 137.35C318.96 138.144 321.216 138.482 323.4 138.382V214.095L323.832 214.293L426.96 263.544H590.64L822.336 374.194H775.728L696.648 336.437H635.736L635.544 336.537L551.064 376.874C548.088 375.842 543.912 375.961 541.224 377.231C538.248 378.661 538.248 380.963 541.224 382.373C544.2 383.802 549.024 383.802 552 382.373C554.688 381.083 554.928 379.098 552.768 377.668L636.192 337.827H696.192L775.272 375.584H825.288L863.856 394.006L780.72 433.708L757.08 422.413V392.775L696.96 364.09C699.12 362.661 698.88 360.676 696.192 359.385C693.216 357.956 688.392 357.956 685.416 359.385C682.44 360.815 682.44 363.117 685.416 364.527C688.104 365.817 692.28 365.916 695.256 364.884L755.304 393.569V421.579L691.272 390.988H660.936L660.744 391.088L624.576 408.358C621.6 407.326 617.424 407.445 614.736 408.715C611.76 410.145 611.76 412.447 614.736 413.857C617.712 415.286 622.536 415.286 625.512 413.857C628.2 412.567 628.44 410.581 626.28 409.152L661.392 392.378H690.792L778.944 434.462L762.936 442.105L814.032 466.502L790.104 477.936H753.912L728.016 465.569C730.08 464.16 729.792 462.194 727.152 460.924C724.176 459.495 719.352 459.495 716.376 460.924C713.4 462.353 713.4 464.656 716.376 466.065C719.088 467.356 723.336 467.455 726.336 466.383L753.456 479.326H787.152L726.12 508.467L582.552 439.902H479.232L479.04 440.001L420.864 467.773C417.888 466.74 413.712 466.859 411.024 468.13C408.048 469.559 408.048 471.862 411.024 473.271C414 474.701 418.824 474.701 421.8 473.271C424.488 471.981 424.728 469.996 422.568 468.567L479.688 441.291H582.072L692.808 494.175H645.408L599.088 472.06C601.248 470.631 601.008 468.646 598.32 467.356C595.344 465.926 590.52 465.926 587.544 467.356C584.568 468.785 584.568 471.088 587.544 472.497C590.232 473.787 594.408 473.887 597.384 472.855L644.952 495.584H695.76L724.392 509.262L651.504 544.061H418.536L237.6 457.748C239.76 456.319 239.52 454.333 236.832 453.043C233.856 451.614 229.032 451.614 226.056 453.043C223.08 454.472 223.08 456.775 226.056 458.184C228.744 459.475 232.92 459.574 235.896 458.542L418.128 545.569H648.576L619.656 559.386H447.216L447.024 559.485L361.992 600.1C359.016 599.068 354.84 599.187 352.152 600.458C349.176 601.887 349.176 604.19 352.152 605.599C355.128 607.028 359.952 607.028 362.928 605.599C365.616 604.309 365.856 602.324 363.696 600.894L447.696 560.795H620.136L620.328 560.696L815.76 467.376L837.456 477.738L631.992 575.862H481.728L481.536 575.961L300.048 662.632H48.6L0 639.406V641.033L48.144 664.021H300.504L300.696 663.922L414.6 609.53V641.728L339.528 677.579C336.552 676.547 332.376 676.666 329.688 677.937C326.712 679.366 326.712 681.669 329.688 683.078C332.664 684.508 337.488 684.508 340.464 683.078C343.152 681.788 343.392 679.803 341.232 678.374L416.304 642.522V608.895H415.92L482.208 577.232H632.472L632.664 577.133L839.184 478.512L863.832 490.284L463.128 681.629V716.21H464.832V682.443L865.536 491.098L895.992 505.649L689.304 604.349V621.996L652.656 639.505V680.101L581.592 714.046C578.616 713.014 574.44 713.133 571.752 714.403C570.672 714.92 569.976 715.555 569.688 716.23H584.544C584.328 715.733 583.92 715.277 583.296 714.86L654.36 680.914V640.319L689.304 623.624V688.617L709.92 698.463L672.72 716.249H676.128L711.576 699.316L747.024 716.249H750.432L690.936 687.842V605.202L897.624 506.502L925.344 519.743L779.064 589.599C776.088 588.567 771.912 588.686 769.224 589.956C766.248 591.386 766.248 593.689 769.224 595.098C772.2 596.527 777.024 596.527 780 595.098C782.688 593.808 782.928 591.823 780.768 590.393L927.048 520.537L953.808 533.321L778.824 616.875H731.28C730.992 616.2 730.296 615.545 729.192 615.009C726.216 613.579 721.392 613.579 718.416 615.009C715.44 616.438 715.44 618.741 718.416 620.15C721.392 621.579 726.216 621.579 729.192 620.15C730.296 619.614 730.992 618.959 731.28 618.284H779.28L779.472 618.185L955.488 534.135L966.288 539.296L974.592 535.326L1016.52 555.336V583.207L981.888 599.743V599.664H927.528L927.336 599.763L867.696 628.249C864.72 627.217 860.544 627.336 857.856 628.607C854.88 630.036 854.88 632.339 857.856 633.748C860.832 635.177 865.656 635.177 868.632 633.748C871.32 632.458 871.56 630.473 869.4 629.043L927.984 601.073H979.08L877.248 649.689C874.248 648.577 869.952 648.656 867.192 649.966C864.216 651.396 864.216 653.699 867.192 655.108C870.168 656.537 874.992 656.537 877.968 655.108C880.584 653.857 880.896 651.932 878.904 650.503L1005.91 589.857V603.257L930.36 639.346V664.815L868.848 694.195C865.872 693.163 861.696 693.282 859.008 694.552C856.032 695.981 856.032 698.284 859.008 699.694C861.984 701.123 866.808 701.123 869.784 699.694C872.472 698.403 872.712 696.418 870.552 694.989L932.064 665.609V640.14L1007.62 604.051V589.023L1018.2 583.961V554.463L976.272 534.453L1003.82 521.291L1090.08 562.483V609.311L1031.5 637.282C1028.5 636.17 1024.2 636.249 1021.44 637.559C1018.46 638.989 1018.46 641.292 1021.44 642.701C1024.42 644.13 1029.24 644.13 1032.22 642.701C1034.83 641.45 1035.14 639.525 1033.15 638.096L1090.06 610.919V648.756L1045.1 670.235V716.17H1046.81V671.048L1090.06 650.383V716.15H1091.76V561.649L1005.5 520.458L1036.44 505.688L1149.19 559.525V687.763L1203.38 713.649V716.249H1205.09V712.915L1150.9 687.029V558.79L1038.14 504.954L1061.06 493.996L1213.22 566.651V676.051L1346.34 739H1350.66L1215.07 675.257V565.857L1062.91 493.202L1100.06 475.455L1353.24 596.349V650.78L1440 692.21V690.582L1354.94 649.966V595.535L1212.55 527.525H1325.16L1440 582.373V580.745L1325.62 526.115H1209.6L1101.79 474.641L1144.99 454.016L1237.66 498.264H1386.46L1440 523.832V522.204L1428.26 516.606H1440V515.197H1425.31L1386.91 496.855H1238.11L1212.17 484.467H1275.43L1275.62 484.368L1307.35 469.222H1439.54L1439.98 469.44V467.812H1310.28L1345.99 450.76C1348.97 451.792 1353.14 451.673 1355.83 450.403C1358.81 448.973 1358.81 446.671 1355.83 445.261C1352.86 443.832 1348.03 443.832 1345.06 445.261C1342.37 446.552 1342.13 448.537 1344.29 449.966L1274.93 483.098H1209.17L1146.62 453.242L1169.74 442.204L1154.86 435.098H1198.08L1254.58 462.075C1252.42 463.505 1252.66 465.49 1255.34 466.78C1258.32 468.209 1263.14 468.209 1266.12 466.78C1269.1 465.351 1269.1 463.048 1266.12 461.639C1263.43 460.348 1259.26 460.249 1256.28 461.281L1198.54 433.708H1151.9L1120.27 418.601L1139.71 409.311H1174.2L1204.54 394.82H1227.17L1278.29 419.237C1275.98 420.666 1276.18 422.711 1278.91 424.021C1281.89 425.45 1286.71 425.45 1289.69 424.021C1292.66 422.591 1292.66 420.289 1289.69 418.879C1287.05 417.629 1282.99 417.49 1280.02 418.442L1227.62 393.43H1204.08L1173.74 407.921H1142.66L1204.85 378.224H1238.42L1308.41 411.634H1439.95V410.224H1308.86L1238.88 376.815H1204.39L1204.2 376.914L1118.57 417.807L1096.1 407.088L1192.87 360.874H1261.13L1317.43 387.753H1439.98V386.343H1317.91L1264.56 360.874H1439.98V359.465H1192.44L1192.25 359.564L1094.45 406.274L1068.91 394.085L1203.84 329.648H1439.98V328.239H1267.9L1439.98 246.055V244.427L1264.49 328.239H1205.09L1333.01 267.157V253.698L1394.23 224.477C1397.21 225.509 1401.38 225.39 1404.07 224.12C1407.05 222.69 1407.05 220.388 1404.07 218.978C1401.1 217.549 1396.27 217.549 1393.3 218.978C1390.61 220.268 1390.37 222.254 1392.53 223.683L1359.19 239.603V202.7L1440 163.99V162.363L1357.49 201.767V240.298L1331.3 252.804V266.264L1202.33 327.862L1202.76 328.477L1067.21 393.212L1042.56 381.44L1181.81 314.939V205.539L1440 82.2235V80.5957L1222.49 184.477V85.5188L1388.98 6.0149C1389.1 6.07446 1389.19 6.15386 1389.31 6.21341C1392.29 7.64269 1397.11 7.64269 1400.09 6.21341C1403.06 4.78413 1403.06 2.48139 1400.09 1.07196ZM1166.38 442.165L966.36 537.688L766.368 442.184L966.384 346.661L1166.38 442.165Z" fill="url(#paint0_radial_7_235)"/>
<path opacity="0.5" d="M993.444 496.487L1187.76 351.869L1100.89 305.179L978.346 405.778L925.125 484.053L993.444 496.487Z" fill="#0F054C"/>
<path opacity="0.5" d="M1083.9 293.165C1085.66 286.531 1069.76 276.404 1048.39 270.544C1027.02 264.685 1008.26 265.312 1006.5 271.945C1004.73 278.578 1020.63 288.706 1042.01 294.565C1063.38 300.425 1082.13 299.798 1083.9 293.165Z" fill="#0F054C"/>
<path d="M1057.54 244.573L1056.78 237.935L1054.98 234.149L1054.24 237.442L1057.54 244.573Z" fill="#DD821F"/>
<path d="M988.622 250.891L987.887 244.375C987.887 244.375 993.743 249.483 993.753 249.622C993.778 249.743 988.622 250.891 988.622 250.891Z" fill="#FFD85A"/>
<path d="M1025.02 267.694C1044.04 265.841 1058.43 254.934 1056.79 237.919C1055.14 220.92 1038.38 208.635 1019.37 210.487C1000.35 212.34 986.282 227.619 987.921 244.634C989.561 261.649 1005.99 269.562 1025.02 267.694Z" fill="#FFD85A"/>
<path d="M1026.07 278.73C1045.09 276.876 1059.17 261.589 1057.52 244.585C1055.88 227.581 1039.12 215.3 1020.1 217.154C1001.08 219.008 986.998 234.295 988.645 251.299C990.292 268.303 1007.05 280.584 1026.07 278.73Z" fill="#FFD85A"/>
<path d="M1045.55 223.95C1052.2 228.908 1056.72 236.166 1057.54 244.574C1059.19 261.572 1045.11 276.868 1026.08 278.721C1016.68 279.64 1007.82 277.094 1001.09 272.235L1045.55 223.95Z" fill="#DD821F"/>
<path d="M1025.93 277.356C1044.1 275.585 1057.56 260.982 1055.98 244.739C1054.41 228.496 1038.4 216.764 1020.24 218.535C1002.07 220.306 988.614 234.909 990.187 251.152C991.76 267.395 1007.76 279.127 1025.93 277.356Z" fill="#F9BF30"/>
<path d="M1025.37 271.549C1039.96 270.127 1050.76 258.405 1049.5 245.367C1048.23 232.329 1035.39 222.912 1020.8 224.334C1006.21 225.756 995.41 237.478 996.673 250.516C997.936 263.554 1010.79 272.971 1025.37 271.549Z" fill="#F2B42A"/>
<path d="M996.681 250.503C996.627 249.967 996.603 249.429 996.594 248.889C998.704 261.089 1011.09 269.684 1025.06 268.323C1039.05 266.962 1049.55 256.124 1049.27 243.744C1049.35 244.278 1049.43 244.796 1049.49 245.347C1050.75 258.38 1039.95 270.104 1025.37 271.54C1010.8 272.96 997.953 263.534 996.681 250.503Z" fill="#FFD85A"/>
<path d="M1018.17 250.289L1023.22 244.799C1028.54 245.613 1038.44 247.157 1046.35 248.429C1044.84 254.462 1040.48 259.67 1034.51 262.697L1018.17 250.289Z" fill="#FFD85A"/>
<path d="M1027.82 265.019C1026.97 265.19 1026.09 265.315 1025.2 265.411C1018.82 266.032 1012.83 264.341 1008.21 261.086L1016.46 252.123L1027.82 265.019Z" fill="#FFD85A"/>
<path d="M1028.64 238.912L1038.17 228.577C1041.83 231.363 1045.15 234.498 1046.31 238.916L1028.64 238.912Z" fill="#FFD85A"/>
<path d="M1022.4 227.045C1007.82 228.465 997.009 240.19 998.282 253.237C998.537 255.887 999.281 258.362 1000.41 260.654C998.379 257.687 997.062 254.252 996.697 250.515C995.44 237.482 1006.23 225.759 1020.81 224.323C1032.44 223.195 1042.96 228.95 1047.39 237.942C1042.33 230.539 1032.8 226.022 1022.4 227.045Z" fill="#DD821F"/>
<path d="M1056.78 237.935C1057.02 240.461 1057.38 242.286 1056.97 244.691C1056.03 242.246 1053.83 234.896 1053.83 234.896L1050.77 229.151L1048.46 227.484L1044.56 225.024L1043.63 216.486C1050.93 221.443 1055.93 229.036 1056.78 237.935Z" fill="#DD821F"/>
<path d="M989.963 241.941L989.684 240.203C989.666 239.958 989.454 239.773 989.212 239.79L989.076 239.8C988.848 239.817 988.667 240.046 988.7 240.29L988.98 242.028C988.997 242.274 989.209 242.459 989.451 242.441L989.588 242.431C989.815 242.414 989.981 242.186 989.963 241.941Z" fill="#DD821F"/>
<path d="M992.501 234.983L992.088 231.836C992.067 231.545 991.823 231.331 991.551 231.367L991.248 231.389C990.975 231.409 990.796 231.669 990.818 231.96L991.23 235.107C991.252 235.398 991.495 235.597 991.767 235.577L992.07 235.554C992.328 235.536 992.522 235.275 992.501 234.983Z" fill="#DD821F"/>
<path d="M996.269 228.818L995.864 225.779C995.825 225.458 995.564 225.215 995.262 225.252L994.733 225.306C994.43 225.328 994.223 225.621 994.246 225.943L994.651 228.983C994.69 229.304 994.952 229.547 995.253 229.51L995.782 229.455C996.085 229.433 996.308 229.139 996.269 228.818Z" fill="#DD821F"/>
<path d="M1002.21 223.618L1001.74 219.92C1001.7 219.599 1001.44 219.356 1001.14 219.393L1000.61 219.447C1000.31 219.469 1000.1 219.762 1000.12 220.084L1000.59 223.782C1000.63 224.103 1000.89 224.347 1001.19 224.309L1001.72 224.255C1002.03 224.233 1002.25 223.939 1002.21 223.618Z" fill="#DD821F"/>
<path d="M1008.32 220.056L1007.81 215.805C1007.77 215.484 1007.51 215.241 1007.2 215.279L1006.68 215.333C1006.37 215.355 1006.17 215.648 1006.19 215.97L1006.7 220.22C1006.74 220.541 1007 220.785 1007.3 220.747L1007.83 220.693C1008.13 220.655 1008.34 220.378 1008.32 220.056Z" fill="#DD821F"/>
<path d="M1014.54 217.691L1014.04 213.594C1014.02 213.271 1013.74 213.029 1013.44 213.067L1012.91 213.121C1012.61 213.143 1012.4 213.436 1012.42 213.758L1012.92 217.855C1012.96 218.176 1013.22 218.419 1013.52 218.382L1014.05 218.328C1014.34 218.307 1014.56 218.013 1014.54 217.691Z" fill="#DD821F"/>
<path d="M1020.87 216.578L1020.37 212.419C1020.33 212.098 1020.07 211.855 1019.77 211.893L1019.24 211.947C1018.93 211.969 1018.73 212.262 1018.75 212.584L1019.25 216.742C1019.29 217.063 1019.55 217.306 1019.85 217.269L1020.38 217.215C1020.69 217.177 1020.91 216.899 1020.87 216.578Z" fill="#DD821F"/>
<path d="M1027.29 216.243L1026.81 212.346C1026.77 212.024 1026.51 211.781 1026.2 211.819L1025.67 211.873C1025.37 211.895 1025.16 212.188 1025.19 212.51L1025.67 216.408C1025.71 216.729 1025.97 216.972 1026.27 216.934L1026.8 216.88C1027.1 216.843 1027.31 216.565 1027.29 216.243Z" fill="#DD821F"/>
<path d="M1033.83 217.187L1033.36 213.428C1033.32 213.107 1033.06 212.863 1032.76 212.901L1032.23 212.955C1031.92 212.977 1031.72 213.27 1031.74 213.592L1032.21 217.367C1032.25 217.688 1032.51 217.931 1032.82 217.894L1033.34 217.839C1033.65 217.802 1033.85 217.509 1033.83 217.187Z" fill="#DD821F"/>
<path d="M1040.53 219.907L1040.04 215.826C1040.01 215.504 1039.74 215.262 1039.43 215.299L1038.91 215.353C1038.6 215.375 1038.4 215.668 1038.42 215.99L1038.91 220.072C1038.95 220.393 1039.22 220.636 1039.52 220.599L1040.05 220.544C1040.35 220.507 1040.57 220.228 1040.53 219.907Z" fill="#DD821F"/>
<path d="M815.689 428.988L816.744 442.791L816.759 442.79C816.757 442.975 816.877 443.152 817.114 443.273L971.696 518.589C972.201 518.83 973.047 518.738 973.569 518.375L996.693 502.388C996.955 502.215 997.076 502.006 997.092 501.804L997.091 501.789C997.09 501.773 997.089 501.758 997.088 501.743L996.023 487.801L984.793 495.439L842.166 425.942C841.661 425.702 840.815 425.794 840.293 426.156L832.362 431.64L815.689 428.988Z" fill="url(#paint1_linear_7_235)"/>
<path d="M841.091 412.076L995.673 487.393C996.178 487.633 996.155 488.144 995.618 488.507L972.493 504.494C971.956 504.857 971.126 504.964 970.62 504.708L816.038 429.392C815.534 429.151 815.557 428.641 816.094 428.277L839.218 412.29C839.755 411.927 840.585 411.82 841.091 412.076Z" fill="url(#paint2_linear_7_235)"/>
<path opacity="0.6" d="M847.971 432.442L969.345 490.382C969.866 485.64 970.868 480.801 972.299 475.993L851.056 416.917C849.5 422.105 848.452 427.348 847.971 432.442Z" fill="#24126A"/>
<path d="M836.538 420.414L982.292 491.44C982.64 491.615 982.619 491.956 982.256 492.198L976.442 496.217C976.08 496.475 975.506 496.532 975.159 496.372L829.405 425.346C829.057 425.171 829.078 424.83 829.441 424.588L835.254 420.569C835.616 420.312 836.206 420.253 836.538 420.414Z" fill="#24126A"/>
<path d="M829.42 425.347L832.389 426.796L835.52 424.624C835.882 424.366 836.457 424.309 836.803 424.468L979.604 494.045L982.271 492.199C982.633 491.942 982.654 491.601 982.307 491.441L836.553 420.415C836.205 420.24 835.632 420.313 835.27 420.57L829.456 424.589C829.078 424.832 829.072 425.172 829.42 425.347Z" fill="#453C9E"/>
<path opacity="0.96" d="M1178.78 254.728L1057.52 195.638C1059.13 216.743 1046.43 243.504 1029.19 255.421L875.786 361.438C855.518 375.442 840.606 406.9 842.48 431.702L963.739 490.792C961.866 465.99 976.777 434.533 997.046 420.528L1150.45 314.511C1167.69 302.594 1180.37 275.834 1178.78 254.728Z" fill="url(#paint3_linear_7_235)"/>
<path opacity="0.8" d="M842.481 431.717L963.741 490.807C963.661 489.718 963.626 488.61 963.606 487.501L963.59 487.502L842.347 428.426C842.351 429.521 842.402 430.628 842.481 431.717Z" fill="#453C9E"/>
<g opacity="0.32">
<path opacity="0.32" d="M1007.21 368.718L1034.67 382.103L1032.25 383.776L1004.79 370.391L1007.21 368.718Z" fill="#453C9E"/>
<path opacity="0.32" d="M993.123 361.853L1003.01 366.683L1000.59 368.356L990.703 363.541L993.123 361.853Z" fill="#453C9E"/>
<path opacity="0.32" d="M982.21 356.541L988.922 359.814L986.501 361.487L979.789 358.214L982.21 356.541Z" fill="#453C9E"/>
<path opacity="0.32" d="M1025.26 370.978L1040.21 378.275L1037.79 379.948L1022.82 372.652L1025.26 370.978Z" fill="#453C9E"/>
<path opacity="0.32" d="M1002.72 359.996L1021.06 368.942L1018.63 370.615L1000.28 361.685L1002.72 359.996Z" fill="#453C9E"/>
<path opacity="0.32" d="M991.807 354.684L998.519 357.957L996.098 359.63L989.37 356.358L991.807 354.684Z" fill="#453C9E"/>
<path opacity="0.32" d="M981.415 349.616L988.128 352.904L985.707 354.577L978.994 351.304L981.415 349.616Z" fill="#453C9E"/>
<path opacity="0.32" d="M1034.93 369.177L1045.75 374.448L1043.33 376.121L1032.5 370.852L1034.93 369.177Z" fill="#453C9E"/>
<path opacity="0.32" d="M1027.04 365.327L1030.73 367.123L1028.31 368.796L1024.6 367.001L1027.04 365.327Z" fill="#453C9E"/>
<path opacity="0.32" d="M1016.12 360L1022.83 363.273L1020.41 364.946L1013.69 361.674L1016.12 360Z" fill="#453C9E"/>
<path opacity="0.32" d="M1011.33 351.145L1051.3 370.617L1048.87 372.291L1008.91 352.818L1011.33 351.145Z" fill="#453C9E"/>
<path opacity="0.32" d="M997.245 344.277L1007.13 349.091L1004.71 350.78L994.824 345.95L997.245 344.277Z" fill="#453C9E"/>
<path opacity="0.32" d="M1046.01 361.504L1056.84 366.789L1054.41 368.463L1043.59 363.192L1046.01 361.504Z" fill="#453C9E"/>
<path opacity="0.32" d="M1020.6 349.123L1041.81 359.464L1039.39 361.137L1018.18 350.796L1020.6 349.123Z" fill="#453C9E"/>
<path opacity="0.32" d="M1009.69 343.816L1016.4 347.089L1013.98 348.762L1007.26 345.489L1009.69 343.816Z" fill="#453C9E"/>
<path opacity="0.32" d="M1040.22 352.164L1062.38 362.96L1059.96 364.633L1037.8 353.837L1040.22 352.164Z" fill="#453C9E"/>
<path opacity="0.32" d="M1020.01 342.305L1036.02 350.11L1033.6 351.799L1017.59 343.993L1020.01 342.305Z" fill="#453C9E"/>
<path opacity="0.32" d="M1004.99 334.999L1015.81 340.269L1013.39 341.942L1002.55 336.673L1004.99 334.999Z" fill="#453C9E"/>
<path opacity="0.32" d="M1060.43 355.484L1067.92 359.131L1065.5 360.804L1058.01 357.157L1060.43 355.484Z" fill="#453C9E"/>
<path opacity="0.32" d="M1046.35 348.616L1056.25 353.444L1053.81 355.118L1043.92 350.289L1046.35 348.616Z" fill="#453C9E"/>
<path opacity="0.32" d="M1026.23 338.812L1042.16 346.577L1039.74 348.25L1023.8 340.485L1026.23 338.812Z" fill="#453C9E"/>
<path opacity="0.32" d="M1050.54 344.132L1073.46 355.304L1071.04 356.977L1048.12 345.805L1050.54 344.132Z" fill="#453C9E"/>
<path opacity="0.32" d="M1024.86 331.619L1046.34 342.094L1043.92 343.767L1022.44 333.307L1024.86 331.619Z" fill="#453C9E"/>
<path opacity="0.32" d="M1013.95 326.307L1020.68 329.579L1018.24 331.253L1011.53 327.98L1013.95 326.307Z" fill="#453C9E"/>
<path opacity="0.32" d="M1003.48 321.195L1010.19 324.468L1007.77 326.141L1001.06 322.868L1003.48 321.195Z" fill="#453C9E"/>
<path opacity="0.32" d="M1065.27 344.782L1079 351.474L1076.57 353.147L1062.85 346.455L1065.27 344.782Z" fill="#453C9E"/>
<path opacity="0.32" d="M951.493 341.575L932.461 332.293L930.025 333.967L949.072 343.248L951.493 341.575Z" fill="#453C9E"/>
<path opacity="0.32" d="M952.957 335.763L938 328.466L935.579 330.139L950.535 337.436L952.957 335.763Z" fill="#453C9E"/>
<path opacity="0.32" d="M954.372 329.906L943.538 324.637L941.117 326.31L951.936 331.595L954.372 329.906Z" fill="#453C9E"/>
<path opacity="0.32" d="M964.822 328.479L949.076 320.808L946.655 322.48L962.401 330.151L964.822 328.479Z" fill="#453C9E"/>
<path opacity="0.32" d="M965.448 322.25L954.615 316.98L952.193 318.653L963.028 323.938L965.448 322.25Z" fill="#453C9E"/>
<path opacity="0.32" d="M973.893 319.843L960.168 313.15L957.732 314.824L971.471 321.516L973.893 319.843Z" fill="#453C9E"/>
<path opacity="0.32" d="M973.192 312.969L965.706 309.321L963.27 310.995L970.756 314.643L973.192 312.969Z" fill="#453C9E"/>
<path opacity="0.32" d="M985.743 312.562L971.245 305.494L968.823 307.167L983.322 314.235L985.743 312.562Z" fill="#453C9E"/>
<path opacity="0.32" d="M990.522 308.354L976.783 301.662L974.361 303.335L988.086 310.028L990.522 308.354Z" fill="#453C9E"/>
<path opacity="0.32" d="M1055.24 339.884L1061.07 342.727L1058.65 344.416L1052.81 341.558L1055.24 339.884Z" fill="#453C9E"/>
<path opacity="0.32" d="M1037.89 331.439L1051.04 337.849L1048.62 339.522L1035.46 333.112L1037.89 331.439Z" fill="#453C9E"/>
<path opacity="0.32" d="M1051.73 304.159L1073.92 314.968L1071.48 316.642L1049.31 305.832L1051.73 304.159Z" fill="#453C9E"/>
<path opacity="0.32" d="M1036.54 296.756L1045.27 301.007L1042.85 302.68L1034.12 298.429L1036.54 296.756Z" fill="#453C9E"/>
</g>
<path opacity="0.3" d="M1031.12 377.843C1033.39 369.3 1012.92 356.257 985.4 348.711C957.878 341.166 933.725 341.975 931.455 350.518C929.184 359.062 949.655 372.105 977.178 379.65C1004.7 387.196 1028.85 386.387 1031.12 377.843Z" fill="#0F054C"/>
<path d="M997.165 315.263L996.205 306.712L993.869 301.839L992.931 306.087L997.165 315.263Z" fill="#DD821F"/>
<path d="M908.447 323.395L907.5 315.012C907.5 315.012 915.048 321.602 915.061 321.77C915.088 321.938 908.447 323.395 908.447 323.395Z" fill="#FFD85A"/>
<path d="M955.295 345.048C979.779 342.657 998.323 328.609 996.191 306.725C994.073 284.841 972.509 269.036 948.025 271.411C923.541 273.802 905.408 293.481 907.541 315.364C909.658 337.249 930.811 347.424 955.295 345.048Z" fill="#FFD85A"/>
<path d="M956.659 359.24C981.14 356.854 999.267 337.173 997.147 315.282C995.026 293.391 973.461 277.58 948.98 279.966C924.499 282.352 906.372 302.033 908.493 323.924C910.613 345.814 932.178 361.626 956.659 359.24Z" fill="#FFD85A"/>
<path d="M981.746 288.72C990.316 295.111 996.13 304.433 997.165 315.261C999.283 337.146 981.165 356.823 956.681 359.214C944.568 360.393 933.18 357.122 924.498 350.863L981.746 288.72Z" fill="#DD821F"/>
<path d="M956.489 357.459C979.877 355.179 997.194 336.38 995.168 315.47C993.143 294.56 972.542 279.457 949.154 281.736C925.767 284.016 908.45 302.815 910.476 323.725C912.501 344.635 933.102 359.738 956.489 357.459Z" fill="#F9BF30"/>
<path d="M955.764 349.988C974.543 348.158 988.447 333.068 986.822 316.284C985.196 299.5 968.655 287.378 949.877 289.208C931.098 291.038 917.194 306.128 918.819 322.912C920.445 339.696 936.986 351.818 955.764 349.988Z" fill="#F2B42A"/>
<path d="M918.829 322.898C918.763 322.209 918.728 321.518 918.723 320.824C921.439 336.526 937.388 347.606 955.384 345.844C973.381 344.097 986.892 330.154 986.548 314.201C986.659 314.887 986.769 315.557 986.836 316.262C988.459 333.047 974.56 348.144 955.778 349.979C936.995 351.815 920.467 339.682 918.829 322.898Z" fill="#FFD85A"/>
<path d="M946.484 322.639L952.989 315.578C959.829 316.636 972.584 318.603 982.772 320.264C980.843 328.04 975.225 334.743 967.529 338.637L946.484 322.639Z" fill="#FFD85A"/>
<path d="M958.927 341.592C957.831 341.811 956.701 341.986 955.567 342.1C947.356 342.9 939.627 340.72 933.701 336.542L944.327 325.015L958.927 341.592Z" fill="#FFD85A"/>
<path d="M959.973 307.986L972.236 294.674C976.945 298.263 981.216 302.3 982.713 307.989L959.973 307.986Z" fill="#FFD85A"/>
<path d="M951.941 292.699C933.159 294.535 919.259 309.617 920.883 326.417C921.208 329.817 922.159 333.032 923.607 335.965C920.997 332.146 919.288 327.721 918.83 322.912C917.207 306.127 931.106 291.03 949.888 289.194C964.859 287.73 978.408 295.145 984.098 306.728C977.583 297.195 965.34 291.396 951.941 292.699Z" fill="#DD821F"/>
<path d="M996.205 306.708C996.519 309.97 996.995 312.311 996.461 315.419C995.241 312.269 992.417 302.806 992.417 302.806L988.48 295.413L985.49 293.272L980.461 290.107L979.261 279.106C988.653 285.483 995.095 295.269 996.205 306.708Z" fill="#DD821F"/>
<path d="M910.164 311.87L909.817 309.628C909.779 309.307 909.517 309.064 909.215 309.102L909.049 309.114C908.746 309.136 908.538 309.429 908.562 309.751L908.909 311.993C908.947 312.314 909.209 312.557 909.511 312.519L909.677 312.507C909.98 312.485 910.203 312.191 910.164 311.87Z" fill="#DD821F"/>
<path d="M913.44 302.935L912.916 298.886C912.874 298.519 912.58 298.248 912.231 298.273L911.839 298.317C911.491 298.358 911.255 298.668 911.283 299.052L911.807 303.101C911.849 303.468 912.143 303.739 912.492 303.714L912.885 303.67C913.232 303.629 913.482 303.302 913.44 302.935Z" fill="#DD821F"/>
<path d="M918.296 294.976L917.78 291.05C917.735 290.637 917.392 290.323 917.015 290.366L916.334 290.431C915.941 290.475 915.663 290.835 915.708 291.248L916.224 295.174C916.269 295.587 916.612 295.902 916.99 295.859L917.67 295.793C918.049 295.766 918.342 295.405 918.296 294.976Z" fill="#DD821F"/>
<path d="M925.956 288.294L925.365 283.54C925.319 283.127 924.976 282.813 924.599 282.856L923.918 282.921C923.525 282.965 923.247 283.325 923.293 283.738L923.884 288.491C923.929 288.904 924.272 289.219 924.649 289.176L925.33 289.11C925.709 289.083 925.986 288.708 925.956 288.294Z" fill="#DD821F"/>
<path d="M933.798 283.694L933.139 278.221C933.094 277.808 932.751 277.494 932.374 277.537L931.693 277.602C931.3 277.646 931.022 278.006 931.067 278.419L931.726 283.892C931.772 284.305 932.115 284.619 932.492 284.576L933.173 284.511C933.567 284.482 933.844 284.107 933.798 283.694Z" fill="#DD821F"/>
<path d="M941.816 280.653L941.173 275.395C941.127 274.982 940.784 274.668 940.407 274.711L939.726 274.776C939.333 274.82 939.055 275.18 939.1 275.593L939.744 280.851C939.789 281.264 940.132 281.578 940.51 281.535L941.19 281.47C941.568 281.427 941.846 281.068 941.816 280.653Z" fill="#DD821F"/>
<path d="M949.966 279.212L949.316 273.862C949.27 273.449 948.928 273.135 948.55 273.178L947.869 273.243C947.476 273.287 947.198 273.647 947.244 274.06L947.894 279.41C947.939 279.823 948.282 280.138 948.659 280.095L949.34 280.029C949.734 280.001 950.012 279.641 949.966 279.212Z" fill="#DD821F"/>
<path d="M958.235 278.792L957.61 273.779C957.565 273.366 957.222 273.052 956.844 273.095L956.164 273.16C955.771 273.204 955.493 273.564 955.538 273.977L956.163 278.99C956.209 279.403 956.552 279.717 956.929 279.674L957.61 279.609C957.989 279.581 958.266 279.206 958.235 278.792Z" fill="#DD821F"/>
<path d="M966.656 280.014L966.058 275.169C966.013 274.756 965.67 274.441 965.292 274.484L964.612 274.549C964.219 274.594 963.941 274.953 963.986 275.366L964.584 280.212C964.629 280.625 964.972 280.939 965.35 280.896L966.03 280.831C966.409 280.803 966.686 280.428 966.656 280.014Z" fill="#DD821F"/>
<path d="M975.287 283.498L974.644 278.24C974.599 277.827 974.256 277.513 973.878 277.556L973.198 277.621C972.805 277.665 972.527 278.025 972.572 278.438L973.215 283.696C973.261 284.109 973.604 284.423 973.981 284.38L974.662 284.315C975.04 284.288 975.334 283.927 975.287 283.498Z" fill="#DD821F"/>
<path opacity="0.5" d="M1185.9 473.419C1187.89 465.916 1169.92 454.465 1145.76 447.841C1121.6 441.217 1100.4 441.929 1098.41 449.432C1096.41 456.934 1114.38 468.385 1138.54 475.009C1162.7 481.633 1183.9 480.921 1185.9 473.419Z" fill="#0F054C"/>
<path d="M1156.09 418.482L1155.25 410.986L1153.2 406.709L1152.36 410.426L1156.09 418.482Z" fill="#DD821F"/>
<path d="M1078.2 425.624L1077.37 418.266C1077.37 418.266 1084 424.044 1084.01 424.197C1084.03 424.334 1078.2 425.624 1078.2 425.624Z" fill="#FFD85A"/>
<path d="M1119.34 444.626C1140.83 442.531 1157.11 430.191 1155.25 410.987C1153.39 391.767 1134.45 377.898 1112.96 379.993C1091.47 382.088 1075.55 399.368 1077.41 418.588C1079.27 437.792 1097.84 446.723 1119.34 444.626Z" fill="#FFD85A"/>
<path d="M1120.52 457.107C1142.01 455.013 1157.93 437.734 1156.06 418.515C1154.2 399.296 1135.27 385.414 1113.78 387.509C1092.29 389.604 1076.37 406.882 1078.24 426.101C1080.1 445.32 1099.03 459.202 1120.52 457.107Z" fill="#FFD85A"/>
<path d="M1142.55 395.178C1150.07 400.782 1155.18 408.984 1156.09 418.48C1157.95 437.7 1142.03 454.98 1120.54 457.075C1109.91 458.114 1099.91 455.236 1092.29 449.748L1142.55 395.178Z" fill="#DD821F"/>
<path d="M1120.37 455.55C1140.9 453.548 1156.1 437.045 1154.32 418.688C1152.55 400.332 1134.46 387.073 1113.93 389.074C1093.4 391.076 1078.19 407.579 1079.97 425.936C1081.75 444.292 1099.84 457.551 1120.37 455.55Z" fill="#F9BF30"/>
<path d="M1119.74 448.984C1136.22 447.378 1148.43 434.128 1147 419.39C1145.57 404.652 1131.05 394.008 1114.57 395.614C1098.09 397.221 1085.88 410.47 1087.31 425.208C1088.74 439.946 1103.26 450.591 1119.74 448.984Z" fill="#F2B42A"/>
<path d="M1087.32 425.188C1087.26 424.576 1087.23 423.976 1087.22 423.361C1089.61 437.143 1103.61 446.87 1119.41 445.33C1135.21 443.789 1147.08 431.555 1146.77 417.558C1146.88 418.152 1146.97 418.762 1147.03 419.359C1148.45 434.092 1136.25 447.353 1119.77 448.959C1103.27 450.581 1088.75 439.936 1087.32 425.188Z" fill="#FFD85A"/>
<path d="M1111.6 424.956L1117.31 418.755C1123.32 419.673 1134.51 421.416 1143.46 422.859C1141.77 429.676 1136.84 435.573 1130.08 438.997L1111.6 424.956Z" fill="#FFD85A"/>
<path d="M1122.52 441.601C1121.56 441.795 1120.56 441.945 1119.56 442.048C1112.35 442.745 1105.57 440.835 1100.37 437.159L1109.69 427.038L1122.52 441.601Z" fill="#FFD85A"/>
<path d="M1123.44 412.091L1134.2 400.416C1138.33 403.569 1142.1 407.103 1143.4 412.097L1123.44 412.091Z" fill="#FFD85A"/>
<path d="M1116.38 398.679C1099.9 400.285 1087.69 413.531 1089.12 428.279C1089.41 431.265 1090.24 434.073 1091.51 436.664C1089.21 433.3 1087.72 429.414 1087.32 425.202C1085.9 410.47 1098.1 397.208 1114.59 395.603C1127.73 394.318 1139.63 400.836 1144.62 410.99C1138.9 402.616 1128.14 397.527 1116.38 398.679Z" fill="#DD821F"/>
<path d="M1155.25 410.986C1155.52 413.85 1155.94 415.901 1155.47 418.635C1154.4 415.875 1151.92 407.559 1151.92 407.559L1148.46 401.056L1145.84 399.181L1141.44 396.403L1140.38 386.749C1148.62 392.346 1154.27 400.925 1155.25 410.986Z" fill="#DD821F"/>
<path d="M1079.72 415.505L1079.4 413.538C1079.38 413.247 1079.14 413.049 1078.88 413.068L1078.73 413.079C1078.47 413.098 1078.28 413.358 1078.3 413.635L1078.61 415.601C1078.63 415.893 1078.88 416.091 1079.13 416.072L1079.28 416.061C1079.54 416.042 1079.74 415.797 1079.72 415.505Z" fill="#DD821F"/>
<path d="M1082.58 407.659L1082.13 404.114C1082.09 403.793 1081.83 403.55 1081.53 403.587L1081.18 403.628C1080.88 403.65 1080.67 403.943 1080.69 404.265L1081.15 407.81C1081.19 408.131 1081.45 408.374 1081.75 408.336L1082.1 408.296C1082.4 408.274 1082.61 407.981 1082.58 407.659Z" fill="#DD821F"/>
<path d="M1086.84 400.69L1086.39 397.253C1086.35 396.886 1086.06 396.614 1085.71 396.655L1085.12 396.713C1084.79 396.753 1084.54 397.064 1084.56 397.433L1085.01 400.87C1085.05 401.237 1085.35 401.509 1085.7 401.468L1086.29 401.409C1086.63 401.368 1086.88 401.057 1086.84 400.69Z" fill="#DD821F"/>
<path d="M1093.57 394.814L1093.05 390.641C1093.01 390.274 1092.72 390.003 1092.37 390.043L1091.78 390.102C1091.45 390.142 1091.2 390.453 1091.22 390.821L1091.74 394.994C1091.78 395.361 1092.08 395.633 1092.42 395.592L1093.01 395.533C1093.36 395.492 1093.6 395.182 1093.57 394.814Z" fill="#DD821F"/>
<path d="M1100.46 390.777L1099.88 385.962C1099.84 385.594 1099.55 385.323 1099.2 385.364L1098.61 385.422C1098.28 385.462 1098.03 385.773 1098.05 386.142L1098.64 390.957C1098.68 391.324 1098.97 391.596 1099.32 391.555L1099.91 391.497C1100.26 391.456 1100.49 391.146 1100.46 390.777Z" fill="#DD821F"/>
<path d="M1107.49 388.105L1106.92 383.489C1106.88 383.122 1106.59 382.85 1106.24 382.891L1105.65 382.949C1105.32 382.989 1105.07 383.301 1105.09 383.669L1105.66 388.285C1105.7 388.652 1106 388.924 1106.34 388.883L1106.93 388.824C1107.28 388.799 1107.53 388.472 1107.49 388.105Z" fill="#DD821F"/>
<path d="M1114.66 386.84L1114.09 382.147C1114.05 381.78 1113.75 381.508 1113.41 381.549L1112.82 381.607C1112.48 381.647 1112.23 381.958 1112.26 382.327L1112.83 387.02C1112.87 387.387 1113.17 387.658 1113.52 387.617L1114.1 387.559C1114.44 387.535 1114.69 387.208 1114.66 386.84Z" fill="#DD821F"/>
<path d="M1121.9 386.462L1121.35 382.06C1121.31 381.693 1121.01 381.421 1120.67 381.462L1120.08 381.521C1119.74 381.56 1119.49 381.872 1119.52 382.24L1120.07 386.642C1120.11 387.009 1120.41 387.28 1120.75 387.239L1121.34 387.181C1121.69 387.155 1121.94 386.829 1121.9 386.462Z" fill="#DD821F"/>
<path d="M1129.3 387.542L1128.78 383.277C1128.74 382.91 1128.44 382.639 1128.1 382.679L1127.51 382.738C1127.17 382.778 1126.92 383.089 1126.95 383.457L1127.47 387.722C1127.52 388.089 1127.81 388.36 1128.16 388.32L1128.75 388.261C1129.08 388.237 1129.33 387.91 1129.3 387.542Z" fill="#DD821F"/>
<path d="M1136.88 390.595L1136.32 385.979C1136.28 385.612 1135.98 385.341 1135.63 385.381L1135.04 385.44C1134.71 385.48 1134.46 385.791 1134.49 386.159L1135.05 390.776C1135.1 391.143 1135.39 391.414 1135.74 391.373L1136.33 391.315C1136.68 391.289 1136.91 390.964 1136.88 390.595Z" fill="#DD821F"/>
<defs>
<radialGradient id="paint0_radial_7_235" cx="0" cy="0" r="1" gradientUnits="userSpaceOnUse" gradientTransform="translate(1471.2 107.998) rotate(180) scale(1054.42 872.144)">
<stop stop-color="#FF2C9C"/>
<stop offset="0.0301" stop-color="#F62F9F"/>
<stop offset="0.2023" stop-color="#C63EB0"/>
<stop offset="0.3737" stop-color="#9E4BBE"/>
<stop offset="0.5413" stop-color="#7F54C9"/>
<stop offset="0.7039" stop-color="#695BD1"/>
<stop offset="0.8594" stop-color="#5C60D5"/>
<stop offset="1" stop-color="#5761D7"/>
</radialGradient>
<linearGradient id="paint1_linear_7_235" x1="1000.68" y1="463.569" x2="839.603" y2="478.434" gradientUnits="userSpaceOnUse">
<stop stop-color="#5761D7"/>
<stop offset="0.0398" stop-color="#5C66D9"/>
<stop offset="0.0867" stop-color="#6A73DF"/>
<stop offset="0.1372" stop-color="#8289E8"/>
<stop offset="0.1899" stop-color="#A3A7F5"/>
<stop offset="0.2237" stop-color="#BCBEFF"/>
</linearGradient>
<linearGradient id="paint2_linear_7_235" x1="946.606" y1="382.552" x2="890.63" y2="483.937" gradientUnits="userSpaceOnUse">
<stop stop-color="#C0BFF6"/>
<stop offset="0.2938" stop-color="#C5C4F7"/>
<stop offset="0.6399" stop-color="#D3D2F9"/>
<stop offset="1" stop-color="#E9E9FD"/>
</linearGradient>
<linearGradient id="paint3_linear_7_235" x1="1081.34" y1="196.063" x2="931.004" y2="497.011" gradientUnits="userSpaceOnUse">
<stop stop-color="#C0BFF6"/>
<stop offset="0.1172" stop-color="#D0CFF9"/>
<stop offset="0.2627" stop-color="#E9E9FD"/>
<stop offset="0.5143" stop-color="#C0BFF6"/>
<stop offset="0.6217" stop-color="#D0CFF9"/>
<stop offset="0.755" stop-color="#E9E9FD"/>
<stop offset="1" stop-color="#C0BFF6"/>
</linearGradient>
</defs>
</svg>
