<svg width="275" height="41" viewBox="0 0 275 41" fill="none" xmlns="http://www.w3.org/2000/svg">
<path fill-rule="evenodd" clip-rule="evenodd" d="M51.0494 10.6829V22.3164H39.4476V12.1794C39.4476 11.353 38.7697 10.6829 37.934 10.6829H34.018V38.4054C34.018 39.2323 34.6955 39.9023 35.5316 39.9023H39.4476V27.0081H51.0494V38.4054C51.0494 39.2323 51.7269 39.9023 52.5629 39.9023H56.4786V12.1794C56.4786 11.353 55.8011 10.6829 54.965 10.6829H51.0494Z" fill="#A4A4A4"/>
<path fill-rule="evenodd" clip-rule="evenodd" d="M73.8235 17.5715V31.4178C73.8235 32.6759 73.1747 33.8686 72.0733 34.498C68.9989 36.2548 65.8174 34.0603 65.8174 31.1667V19.068C65.8174 18.2415 65.14 17.5715 64.3039 17.5715H60.3724V31.6601C60.3724 36.1933 64.1225 39.9021 68.7063 39.9021H70.9346C75.5184 39.9021 79.2686 36.1933 79.2686 31.6601V19.068C79.2686 18.2415 78.5911 17.5715 77.7554 17.5715H73.8235Z" fill="#A4A4A4"/>
<path fill-rule="evenodd" clip-rule="evenodd" d="M134.215 39.9016H138.131V20.2937C138.131 19.4669 137.453 18.7969 136.618 18.7969H132.702V38.4047C132.702 39.2316 133.379 39.9016 134.215 39.9016Z" fill="#5B5B5B"/>
<path fill-rule="evenodd" clip-rule="evenodd" d="M135.416 16.6724C137.09 16.6724 138.447 15.3306 138.447 13.6756C138.447 12.0206 137.09 10.6792 135.416 10.6792C133.743 10.6792 132.386 12.0206 132.386 13.6756C132.386 15.3306 133.743 16.6724 135.416 16.6724Z" fill="#5B5B5B"/>
<path fill-rule="evenodd" clip-rule="evenodd" d="M98.3751 30.6298C98.3751 33.2938 96.1716 35.0671 93.4779 35.0671C90.7842 35.0671 88.5804 33.2938 88.5804 30.6298V26.8284C88.5804 24.1645 90.7842 22.3912 93.4779 22.3912C96.1716 22.3912 98.3751 24.1645 98.3751 26.8284V30.6298ZM93.4779 17.557C87.7827 17.557 83.1233 21.5859 83.1233 27.2179V30.2643C83.1233 35.8963 87.7827 39.9013 93.4779 39.9013C99.1728 39.9013 103.833 35.8963 103.833 30.2643V27.2179C103.833 21.5859 99.1728 17.557 93.4779 17.557Z" fill="#A4A4A4"/>
<path fill-rule="evenodd" clip-rule="evenodd" d="M123.02 30.6307C123.02 33.2947 120.816 35.0679 118.122 35.0679C115.429 35.0679 113.225 33.2947 113.225 30.6307V26.8293C113.225 24.1653 115.429 22.3921 118.122 22.3921C120.816 22.3921 123.02 24.1653 123.02 26.8293V30.6307ZM118.122 17.5578C116.343 17.5578 114.664 17.9514 113.197 18.6645V12.1544C113.197 11.3275 112.52 10.6575 111.684 10.6575H107.768V30.2651C107.768 35.8975 112.428 39.9022 118.122 39.9022C123.818 39.9022 128.477 35.8975 128.477 30.2651V27.2188C128.477 21.5868 123.818 17.5578 118.122 17.5578Z" fill="#5B5B5B"/>
<path fill-rule="evenodd" clip-rule="evenodd" d="M231.28 30.7225C231.28 33.3588 229.099 35.1139 226.433 35.1139C223.767 35.1139 221.586 33.3588 221.586 30.7225V26.9601C221.586 24.3238 223.767 22.5686 226.433 22.5686C229.099 22.5686 231.28 24.3238 231.28 26.9601V30.7225ZM226.433 17.7843H226.433C224.671 17.7843 223.01 18.1734 221.558 18.879V12.1584C221.558 11.3404 220.887 10.6773 220.06 10.6773H216.185V30.3607C216.185 35.935 220.796 39.8983 226.433 39.8983H226.433C232.069 39.8983 236.681 35.935 236.681 30.3607V27.3455C236.681 21.7715 232.069 17.7843 226.433 17.7843Z" fill="#A4A4A4"/>
<path fill-rule="evenodd" clip-rule="evenodd" d="M274.786 39.7979V36.4264C274.786 35.6282 274.132 34.9821 273.325 34.9849C272.509 34.9876 271.485 34.9903 270.619 34.9903C268.412 34.9903 268.516 33.8997 268.516 31.0721V12.1431C268.516 11.3467 267.863 10.7013 267.058 10.7013H263.083V31.7185C263.083 36.8083 264.41 39.7979 269.965 39.7979C272.112 39.7979 273.669 39.7378 274.785 39.7983L274.786 39.7979Z" fill="#A4A4A4"/>
<path fill-rule="evenodd" clip-rule="evenodd" d="M170.728 22.4383H160.222V25.2694C160.222 26.1204 160.92 26.8103 161.78 26.8103H166.771V29.3133C166.771 31.16 166.304 32.5229 165.341 33.4834C164.158 34.6915 162.52 35.3297 160.607 35.3297C158.883 35.3297 157.242 34.7393 156.218 33.7509C154.794 32.3709 154.487 30.8723 154.487 25.3097C154.487 19.7788 154.794 18.2871 156.217 16.9084C157.267 15.8947 159.316 15.1277 161.015 15.1277C166.758 15.1277 168.687 17.1435 170.126 18.9789H170.314V14.8745C170.314 14.2677 170.021 13.7005 169.542 13.3216C167.136 11.4172 164.737 10.7212 160.607 10.7212C157.272 10.7212 154.419 11.7578 152.131 13.802C148.97 16.6245 148.97 19.8092 148.971 25.0852V25.5341C148.97 30.8102 148.97 33.9945 152.131 36.817C154.388 38.8332 157.319 39.8985 160.607 39.8985C164.061 39.8985 167.101 38.7488 169.399 36.5741L169.4 36.5734C171.45 34.6259 172.287 30.8963 172.287 27.0183V23.9789C172.287 23.1281 171.589 22.4383 170.728 22.4383Z" fill="#A4A4A4"/>
<path fill-rule="evenodd" clip-rule="evenodd" d="M187.846 39.7979V36.4264C187.846 35.6282 187.193 34.9821 186.386 34.9849C185.57 34.9876 184.545 34.9903 183.68 34.9903C181.474 34.9903 181.577 33.8997 181.577 31.0721V12.1431C181.577 11.3467 180.924 10.7013 180.119 10.7013H176.144V31.7185C176.144 36.8083 177.471 39.7979 183.026 39.7979C185.173 39.7979 186.73 39.7378 187.846 39.7983L187.846 39.7979Z" fill="#A4A4A4"/>
<path fill-rule="evenodd" clip-rule="evenodd" d="M206.862 30.7224C206.862 33.3587 204.68 35.1139 202.015 35.1139C199.349 35.1139 197.168 33.3587 197.168 30.7224V26.96C197.168 24.3237 199.349 22.5686 202.015 22.5686C204.68 22.5686 206.862 24.3237 206.862 26.96V30.7224ZM202.015 17.7842C196.378 17.7842 191.767 21.7715 191.767 27.3454V30.3606C191.767 35.9349 196.378 39.8982 202.015 39.8982C207.651 39.8982 212.263 35.9349 212.263 30.3606V27.3454C212.263 21.7715 207.651 17.7842 202.015 17.7842Z" fill="#A4A4A4"/>
<path fill-rule="evenodd" clip-rule="evenodd" d="M253.824 29.8875V35.4361C253.405 35.5164 252.942 35.5803 252.44 35.6258C251.211 35.7402 250.108 35.7611 248.83 35.6459C248.329 35.6012 247.867 35.4747 247.455 35.2732C247.058 35.0774 246.733 34.7993 246.463 34.4221C246.206 34.0647 246.076 33.5368 246.076 32.8531C246.076 31.7882 246.46 31.0256 247.25 30.5209C248.092 29.9835 249.366 29.7105 251.039 29.7105C251.49 29.7105 252.04 29.7361 252.689 29.787C253.114 29.8205 253.493 29.854 253.824 29.8875ZM256.73 19.6627C255.12 18.3907 252.765 17.746 249.732 17.746C248.604 17.746 247.418 17.8273 246.207 17.9872C245.236 18.1153 243.862 18.2988 242.909 18.5161C242.522 18.6043 242.451 18.9046 242.451 19.2644V22.1327C242.451 22.6438 242.457 23.1088 243.004 22.9769C244.025 22.7309 246.005 22.297 246.543 22.2092C247.394 22.0708 248.32 22.0011 249.296 22.0011C250.815 22.0011 251.974 22.27 252.74 22.7986C253.459 23.2967 253.824 24.2448 253.824 25.6163V25.7823C253.553 25.7577 253.256 25.7342 252.932 25.7126C252.326 25.6723 251.549 25.6518 250.603 25.6518C249.31 25.6518 248.058 25.7967 246.882 26.0827C245.688 26.3738 244.615 26.8234 243.691 27.4203C242.752 28.0291 241.999 28.8016 241.452 29.7187C240.901 30.6422 240.621 31.7239 240.621 32.9321C240.621 34.1593 240.861 35.2277 241.332 36.1068C241.807 36.9938 242.491 37.7335 243.362 38.3044C244.219 38.8682 245.272 39.2802 246.489 39.531C247.673 39.7743 249.013 39.8976 250.472 39.8976C251.535 39.8976 259.19 39.791 259.19 36.1881C259.19 32.0133 259.19 25.7731 259.19 25.7731C259.19 23.0094 258.362 20.9536 256.73 19.6627Z" fill="#A4A4A4"/>
<path fill-rule="evenodd" clip-rule="evenodd" d="M17.7177 12.662C17.7177 6.84339 14.8516 1.8397 12.6717 0.210302C12.6627 0.205177 12.5048 0.117369 12.5183 0.350043L12.5152 0.357218C12.3341 11.5915 6.53082 14.6364 3.34034 18.7381C-4.02247 28.2036 2.82489 38.5814 9.79765 40.4995C13.6991 41.5727 8.89665 38.6005 8.27824 32.3227C7.53029 24.735 17.7177 18.9431 17.7177 12.662Z" fill="#A4A4A4"/>
<path fill-rule="evenodd" clip-rule="evenodd" d="M21.1071 16.5359C21.0626 16.5059 20.999 16.4854 20.9551 16.5571C20.8352 17.9713 19.3745 20.9964 17.5231 23.7741C11.2437 33.1963 14.8222 37.7384 16.8343 40.1779C18.0027 41.5941 16.8343 40.1779 19.7546 38.7306C19.9833 38.6172 25.4525 35.5838 26.0447 28.6726C26.6182 21.98 22.5536 17.7615 21.1071 16.5359Z" fill="#5B5B5B"/>
</svg>
