<svg width="364" height="233" viewBox="0 0 364 233" fill="none" xmlns="http://www.w3.org/2000/svg">
<path d="M360.616 233H1.15106C0.515708 233 0 232.495 0 231.873C0 231.25 0.515708 230.745 1.15106 230.745H360.616C361.252 230.745 361.767 231.25 361.767 231.873C361.767 232.495 361.252 233 360.616 233Z" fill="#2E5B99"/>
<path d="M248.487 111.479L364 111.479V5.6601L248.487 5.6601V111.479Z" fill="#E5E5FC"/>
<path d="M57.0121 193.719H134.789V125.247L57.0121 125.247L57.0121 193.719Z" fill="#E6F6FF"/>
<path d="M233.54 71.6892V62.1845C233.54 57.8679 237.11 54.3691 241.515 54.3691H326.431C330.837 54.3691 334.408 57.8679 334.408 62.1845V230.189H114.757V71.6892H233.54Z" fill="white"/>
<path d="M232.835 71.6892V62.1845C232.835 57.8679 236.405 54.3691 240.81 54.3691H325.725C330.132 54.3691 333.703 57.8679 333.703 62.1845V230.189H114.051V71.6892H232.835Z" fill="#7470FF"/>
<path d="M326.344 78.2532V230.187H122.869V77.5068L326.344 78.2532Z" fill="#DAD9FB"/>
<path d="M315.173 78.2532V230.187H111.698V77.5068L315.173 78.2532Z" fill="#AEADF2"/>
<path d="M103.495 71.6863H304.514C308.64 71.6863 311.679 74.4212 312.272 78.2042V230.186H92.8798V82.06C92.8302 76.601 97.8581 71.6863 103.495 71.6863Z" fill="white"/>
<path d="M177.23 128.109L294.718 128.432L294.968 40.9609L177.48 40.6386L177.23 128.109Z" fill="#EBF3FF"/>
<path d="M180.307 123.913L291.786 124.218L292.015 43.8044L180.537 43.4985L180.307 123.913Z" fill="#9996FF"/>
<path d="M282.39 117.742L210.75 117.547L249.921 80.7323L282.39 117.742Z" fill="#E3EEFF"/>
<path d="M249.815 117.651L189.621 117.486L222.284 87.0599L249.815 117.651Z" fill="#E3EEFF"/>
<path d="M233.41 78.2949C236.65 75.1208 236.65 69.9746 233.41 66.8005C230.169 63.6264 224.916 63.6265 221.676 66.8005C218.436 69.9746 218.436 75.1208 221.676 78.2949C224.916 81.469 230.169 81.469 233.41 78.2949Z" fill="#E3EEFF"/>
<path d="M161.58 117.625L270.501 117.967L270.805 25.1718L161.883 24.8298L161.58 117.625Z" fill="#EBF3FF"/>
<path d="M164.748 113.18L267.484 113.504L267.765 28.1969L165.029 27.8725L164.748 113.18Z" fill="#8D8BE1"/>
<path d="M257.674 39.9751H216.758V43.4969H257.674V39.9751Z" fill="#DAD9FB"/>
<path d="M174.429 53.001L257.674 53.001V49.4792L174.429 49.4792V53.001Z" fill="#DAD9FB"/>
<path d="M174.429 62.6875L257.674 62.6875V59.1655L174.429 59.1655V62.6875Z" fill="#DAD9FB"/>
<path d="M102.528 71.6863H303.547C307.673 71.6863 310.712 74.4212 311.305 78.2042V230.73H91.9115V82.06C91.862 76.601 96.8912 71.6863 102.528 71.6863Z" fill="#DAD9FB"/>
<path d="M312.271 230.19H334.408V229.316H312.271V230.19Z" fill="white"/>
<path opacity="0.5" d="M334.409 135.977L326.344 141.131H315.691L312.272 143.708V141.26H92.8798V135.977H334.409Z" fill="black"/>
<path d="M88.4094 138.322L337.524 138.322V110.748L88.4094 110.748V138.322Z" fill="#9996FF"/>
<path d="M88.4097 138.322L315.099 138.322V110.748L88.4097 110.748V138.322Z" fill="#7470FF"/>
<path d="M252.43 110.757V138.323H232.733L246.543 110.757H252.43Z" fill="#0E0E0E"/>
<path d="M245.623 124.511C245.623 128.325 246.304 131.778 247.446 134.262C248.562 136.806 250.114 138.319 251.828 138.319H257.058V110.764H251.828C248.398 110.764 245.623 116.941 245.623 124.511ZM250.576 129.054C249.597 128.751 248.835 126.874 248.835 124.513C248.835 122.212 249.597 120.335 250.576 120.032C251.557 120.335 252.319 122.213 252.319 124.513C252.319 126.874 251.557 128.751 250.576 129.054Z" fill="#7470FF"/>
<path d="M248.287 124.511C248.287 128.325 248.999 131.778 250.194 134.262C251.362 136.806 252.984 138.319 254.779 138.319H257.058V110.764H254.779C251.192 110.764 248.287 116.941 248.287 124.511ZM250.794 124.511C250.794 122.21 252.275 120.334 253.299 120.031C254.325 120.334 255.123 122.212 255.123 124.511C255.123 126.874 254.325 128.75 253.299 129.053C252.275 128.751 250.794 126.874 250.794 124.511Z" fill="#9996FF"/>
<path d="M248.128 124.508C248.128 128.322 248.809 131.775 249.952 134.259C251.067 136.803 252.62 138.316 254.333 138.316H259.563V110.76H254.333C250.905 110.76 248.128 116.938 248.128 124.508ZM253.082 129.051C252.103 128.747 251.339 126.871 251.339 124.509C251.339 122.208 252.101 120.331 253.082 120.028C254.062 120.331 254.824 122.209 254.824 124.509C254.824 126.871 254.062 128.747 253.082 129.051Z" fill="#7470FF"/>
<path d="M250.792 124.508C250.792 128.322 251.505 131.775 252.7 134.259C253.867 136.802 255.49 138.315 257.285 138.315H259.563V110.76H257.285C253.698 110.76 250.792 116.938 250.792 124.508ZM253.299 124.508C253.299 122.207 254.097 120.33 255.121 120.027C256.147 120.33 256.945 122.208 256.945 124.508C256.945 126.871 256.147 128.746 255.121 129.049C254.097 128.747 253.299 126.871 253.299 124.508Z" fill="#DAD9FB"/>
<path d="M254.309 138.495C254.086 138.495 252.811 138.438 251.463 137.17C249.934 135.731 248.111 132.481 248.111 125.169C248.111 118.202 249.773 114.617 251.168 112.835C252.704 110.873 254.237 110.594 254.302 110.583C254.402 110.567 254.496 110.632 254.514 110.73C254.53 110.827 254.464 110.92 254.365 110.938C254.35 110.94 252.884 111.215 251.434 113.085C250.085 114.826 248.476 118.334 248.476 125.169C248.476 132.337 250.231 135.505 251.703 136.898C253.041 138.164 254.316 138.138 254.325 138.136C254.428 138.132 254.511 138.21 254.515 138.308C254.519 138.407 254.441 138.49 254.34 138.494C254.338 138.495 254.327 138.495 254.309 138.495Z" fill="#625FDB"/>
<path d="M255.12 128.68C255.368 128.741 255.552 128.801 255.799 128.862C255.738 128.922 255.738 128.922 255.799 128.922C265.753 131.83 273.109 140.792 273.109 151.512V174.531H281.022V151.512C281.022 136.614 270.327 124.138 256.047 120.989C255.738 120.867 255.428 120.807 255.12 120.747C252.832 120.262 252.646 128.318 255.12 128.68Z" fill="#E6E6E6"/>
<path d="M245.753 120.333V128.041C235.553 129.328 227.319 136.741 225.128 146.429C225.065 146.67 225.004 146.852 225.004 147.034C224.88 147.579 224.818 148.063 224.757 148.608C224.633 149.577 224.571 150.547 224.571 151.516V174.535H216.72V151.516C216.72 135.234 229.491 121.895 245.753 120.333Z" fill="#E6E6E6"/>
<path d="M254.937 126.405C273.492 129.593 275.88 149.382 275.88 149.382V174.535H273.097V151.516C273.097 140.571 265.436 131.422 255.126 128.695C254.338 128.445 253.847 126.184 253.847 126.184C253.847 126.184 254.333 126.292 254.937 126.405Z" fill="#999999"/>
<path d="M245.754 126.403V128.041C235.553 129.327 227.319 136.74 225.128 146.428C225.572 140.773 230.358 128.417 245.754 126.403Z" fill="#808080"/>
<path d="M255.12 128.68C255.368 128.74 255.552 128.801 255.799 128.862C255.614 128.377 254.608 127.276 254.485 124.976C254.361 122.613 255.179 121.017 256.047 120.989C255.738 120.867 255.428 120.807 255.12 120.747C252.832 120.262 252.646 128.317 255.12 128.68Z" fill="#666666"/>
<path d="M287.811 168.263H209.857V230.688H287.811V168.263Z" fill="#FFD85A"/>
<path d="M250.007 183.675C249.76 183.615 249.512 183.615 249.265 183.615C243.949 183.615 239.62 187.833 239.62 193.091C239.62 196.942 241.97 200.244 245.308 201.771V217.849C245.308 219.99 247.1 221.763 249.263 221.763C249.449 221.763 249.696 221.763 249.882 221.702H250.066C251.86 221.335 253.221 219.746 253.221 217.851V201.773C256.557 200.306 258.908 196.943 258.908 193.093C258.909 188.077 255.014 184.042 250.007 183.675Z" fill="#F2B42A"/>
<path d="M250.008 183.673C245.001 183.978 241.043 188.075 241.043 193.088C241.043 196.938 243.393 200.24 246.731 201.768V217.846C246.731 219.742 248.091 221.332 249.884 221.698H250.069C251.862 221.33 253.223 219.742 253.223 217.846V201.768C256.56 200.301 258.91 196.938 258.91 193.088C258.91 188.075 255.015 184.04 250.008 183.673Z" fill="#BF6E16"/>
<path d="M234.594 230.684H209.857V168.258H216.72C216.72 168.259 214.898 214.319 234.594 230.684Z" fill="#F2B42A"/>
<path d="M271.074 230.684C276.982 218.3 275.88 185.005 275.88 168.258H283.732V230.684H271.074Z" fill="#FAE49D"/>
<path d="M190.672 172.807C190.672 172.807 182.674 172.553 174.792 172.922C166.605 173.314 158.537 174.373 159.689 177.141C159.948 177.763 159.995 178.361 159.854 178.961C158.208 186.358 128.355 191.889 121.768 187.349C116.851 183.96 103.301 188.316 97.7494 190.667C87.1767 121.334 86.881 50.4558 96.2435 45.5249C105.606 40.6155 131.554 46.8384 131.554 46.8384C131.554 46.8384 144.704 50.2496 150.067 85.4866C155.455 120.699 190.672 172.807 190.672 172.807Z" fill="#4582E6"/>
<path d="M159.691 177.139C159.949 177.762 159.996 178.36 159.856 178.959C151.764 154.783 132.709 85.7153 139.625 104.544C146.259 122.704 167.078 159.485 174.793 172.921C166.607 173.313 158.537 174.373 159.691 177.139Z" fill="#3D73CC"/>
<path d="M95.2671 63.8509C87.5741 73.0687 86.1631 75.3051 78.9652 75.7888C81.3883 77.2869 82.8227 79.3145 83.8115 81.5038H83.8349C85.9527 86.044 86.258 91.3441 89.9518 94.3175L85.5291 98.5815L84.4001 99.6876C84.4001 99.6876 84.2351 99.5488 83.9531 99.2955C82.0237 97.5441 74.3555 90.4684 69.7911 83.9693C67.1094 80.1902 65.4867 76.6174 66.6157 74.3823C68.4503 67.8832 73.1563 54.5401 85.1289 50.5522C92.9856 42.1872 100.679 46.6802 103.407 50.1602C107.053 54.8162 103.382 64.7724 95.2671 63.8509Z" fill="#002E73"/>
<path d="M89.9504 94.3176L85.5277 98.5816L83.9517 99.2956C82.1405 97.6358 75.2245 91.2756 70.6134 85.0985C70.3315 84.7294 70.0482 84.3387 69.7897 83.9696C72.0712 83.9467 79.4107 83.7621 83.8101 81.5042H83.8334C84.0218 81.8962 84.1869 82.2869 84.3271 82.6789C86.0214 86.92 86.5633 91.5976 89.9504 94.3176Z" fill="#231F20"/>
<path d="M84.3285 82.6788C79.4589 85.5831 73.8837 85.4902 70.6134 85.0982C70.3315 84.7291 70.0482 84.3384 69.7897 83.9693C72.0712 83.9464 79.4107 83.7619 83.81 81.5042H83.8334C84.0218 81.8962 84.1869 82.2868 84.3285 82.6788Z" fill="#66B8FF"/>
<path d="M86.636 90.3884C86.636 90.3884 91.6748 90.8465 93.2 92.1466C94.4748 93.2325 93.6964 94.5879 93.6964 94.5879C96.4084 96.082 93.6964 101.877 88.9615 103.306C84.2267 104.737 81.1241 95.9984 81.1241 95.9984C81.1241 95.9984 81.8448 90.6996 86.636 90.3884Z" fill="#231F20"/>
<path d="M150.208 230.989H133.114C132.762 230.792 132.502 230.57 132.348 230.316C131.468 217.861 130.2 211.864 130.2 211.864L142.106 211.39L144.801 220.655C148.789 223.325 153.543 229.055 150.208 230.989Z" fill="#231F20"/>
<path d="M131.819 231.215H152.084C152.599 231.215 152.425 228.455 151.912 228.455L131.768 228.567C131.239 228.565 131.291 231.215 131.819 231.215Z" fill="#231F20"/>
<path d="M124.757 98.3447C127.523 105.636 139.293 139.039 135.934 163.088C140.556 179.081 139.105 192.627 143.272 215.983L131.14 216.609C126.208 188.111 120.781 193.55 119.211 165.328C109.214 143.2 104.03 122.237 101.369 100.654C98.7819 84.3832 119.172 75.839 124.757 98.3447Z" fill="#002E73"/>
<path d="M131.265 217.817C131.265 217.817 130.357 209.336 124.649 193.136C122.876 188.158 121.916 184.862 121.417 182.835C120.916 180.783 120.854 180 120.854 180C123.863 176.589 127.682 171.451 131.074 165.273C134.787 170.966 139.204 176.659 139.204 176.659C139.204 176.659 139.317 177.995 139.518 180.185C140.413 189.357 142.819 213.602 144.27 218.74C146.065 225.099 134.785 228.718 131.265 217.817Z" fill="#231F20"/>
<path d="M139.519 180.183C137.581 178.063 134.092 174.076 131.174 169.721C129.851 174.422 124.295 180.114 121.417 182.834C120.916 180.783 120.854 180 120.854 180C123.863 176.589 127.682 171.45 131.074 165.273C134.787 170.965 139.204 176.659 139.204 176.659C139.204 176.659 139.318 177.994 139.519 180.183Z" fill="#66B8FF"/>
<path d="M110.41 101.439C109.553 133.195 103.774 160.168 103.774 160.168C106.221 181.833 100.658 185.872 98.1439 216.866L87.1779 216.723C87.1504 204.143 86.405 188.563 85.6253 163.339C78.7217 136.976 82.0469 117.56 84.6214 101.801C87.3677 83.9004 112.162 77.9766 110.41 101.439Z" fill="#002E73"/>
<path d="M98.1445 216.872C99.1223 222.003 99.825 226.007 99.4138 230.651L72.8569 231.158C72.8569 231.158 70.2275 228.649 73.5335 224.888C76.8382 221.125 83.1147 223.302 87.1798 216.729L98.1445 216.872Z" fill="#231F20"/>
<path d="M71.6489 231.22H99.8644C100.379 231.22 100.244 228.46 99.7296 228.46L71.6338 228.572C71.1057 228.57 71.1209 231.22 71.6489 231.22Z" fill="#231F20"/>
<path d="M103.418 181.83C103.418 181.83 103.228 182.752 102.905 184.32C101.57 191.164 97.9859 210.269 98.4053 218.866C93.4201 224.696 86.9401 218.22 86.9401 218.22L84.3286 171L84.1498 167.82C91.1813 175.47 98.4851 179.549 103.418 181.83Z" fill="#231F20"/>
<path d="M103.418 181.83C103.418 181.83 103.228 182.751 102.905 184.319C93.2194 181.554 87.255 175.055 84.3286 171L84.1498 167.82C91.1813 175.47 98.4851 179.549 103.418 181.83Z" fill="#66B8FF"/>
<path d="M85.4384 99.9291C85.4384 105.42 125.246 103.831 125.246 98.3394C125.112 89.2793 126.388 81.8237 128.128 75.6601C140.062 64.2059 139.351 55.3141 136.327 50.491C131.112 42.1732 104.767 42.6448 95.2822 46.2203C91.5155 47.6403 86.4574 53.424 84.8401 62.6444C84.0081 67.3854 87.5713 72.905 88.1352 76.7379C89.4375 85.6053 85.7038 98.6547 85.4384 99.9291Z" fill="#002E73"/>
<path d="M110.254 49.998C112.218 48.4702 120.053 46.1112 122.137 44.4406L121.667 31.1163L113.963 30.3821C111.728 30.564 109.495 31.088 107.574 31.8317L105.84 40.605L105.457 42.5073C104.584 44.38 106.313 46.638 110.254 49.998Z" fill="#F7A594"/>
<path d="M119.074 34.1272C117.865 35.9487 112.805 40.6144 105.839 40.5982L107.339 33.0076L119.074 34.1272Z" fill="#E6836F"/>
<path d="M102.024 16.5859C101.42 19.2103 100.175 24.9738 100.379 27.6279C100.688 31.6683 104.542 36.1505 107.901 36.7379C111.79 37.1259 117.033 35.9916 119.88 33.5962C121.464 31.7774 124.531 27.4622 125.941 23.6859C128.884 15.8085 123.202 8.89989 115.995 7.30476C108.784 5.70828 103.908 8.40276 102.024 16.5859Z" fill="#F7A594"/>
<path d="M123.527 28.8875C125.03 26.2954 123.033 25.2459 120.842 27.2573C121.216 25.3011 123.492 19.5713 121.476 17.6703C119.199 15.4649 109.178 16.4255 103.795 10.926C103.795 10.926 107.808 2.3077 120.977 7.39759C135.853 15.124 123.527 28.8875 123.527 28.8875Z" fill="#73382A"/>
<path d="M125.557 29.5785C126.703 28.2273 126.763 26.4246 125.691 25.552C124.619 24.6793 122.821 25.0673 121.675 26.4184C120.529 27.7696 120.469 29.5723 121.541 30.4449C122.613 31.3175 124.411 30.9296 125.557 29.5785Z" fill="#F7A594"/>
<path d="M105.896 39.8335C107.212 42.1373 120.755 40.9396 121.978 39.0037L122.73 46.3743L110.128 53.3772L103.545 46.2827L105.896 39.8335Z" fill="#002E73"/>
<path d="M128.153 15.3752C127.781 8.92335 115.034 -0.181209 105.892 3.19898C99.7241 5.47849 101.171 11.8926 106.541 13.1038C111.276 14.1721 124.39 8.61079 128.153 15.3752Z" fill="#231F20"/>
<path d="M104.753 3.21587C104.753 3.21587 105.024 1.37554 106.038 0C98.8839 4.59141 102.444 10.0814 102.528 10.3159C105.365 1.87537 112.136 2.26337 114.539 2.29301C108.355 -0.557757 104.815 2.96394 104.753 3.21587Z" fill="#231F20"/>
<path d="M84.942 101.793C95.3263 106.181 119.317 105.215 126.487 101.853L128.321 107.803C112.721 111.405 97.7975 111.506 83.63 107.69L84.942 101.793Z" fill="#66B8FF"/>
<path d="M154.43 87.8364C147.561 95.0496 133.07 103.277 133.07 103.277L128.624 97.0085C133.235 94.5188 135.775 88.0668 140.175 83.6411C141.681 82.1201 143.398 80.8523 145.468 80.0224C138.457 78.2481 134.928 76.5425 129.095 66.1027C120.931 65.549 119.167 55.0876 123.613 51.1914C126.953 48.2652 135.375 45.2002 141.539 54.833C152.549 60.8942 157.254 74.1215 157.841 80.8523C158.383 82.7668 156.9 85.2322 154.43 87.8364Z" fill="#002E73"/>
<path d="M132.611 93.7281C132.611 93.7281 127.572 93.2768 125.83 94.2805C124.375 95.1199 124.886 96.5925 124.886 96.5925C121.942 97.576 123.526 103.757 127.915 106.011C132.303 108.265 136.983 100.23 136.983 100.23C136.983 100.23 137.262 94.8922 132.611 93.7281Z" fill="#231F20"/>
<path d="M154.43 87.839C154.007 88.2769 153.56 88.7376 153.09 89.1755C145.844 96.0436 133.07 103.279 133.07 103.279L128.624 97.0109C132.6 94.8675 135.023 89.7979 138.434 85.6026C138.974 84.9115 139.563 84.2662 140.175 83.6438C141.893 84.6354 147.021 87.2853 154.43 87.839Z" fill="#231F20"/>
<path d="M154.43 87.8388C154.007 88.2766 153.56 88.7373 153.09 89.1751C146.879 88.8761 141.045 86.687 138.434 85.6025C138.974 84.9114 139.563 84.2662 140.175 83.6438C141.893 84.6353 147.021 87.2851 154.43 87.8388Z" fill="#66B8FF"/>
<path d="M114.09 60.9726C114.093 60.949 114.094 60.9393 114.094 60.9365C114.094 60.9407 114.09 60.9726 114.09 60.9726Z" fill="#D9FFFF"/>
<path d="M114.09 60.9726C114.093 60.949 114.094 60.9393 114.094 60.9365C114.094 60.9407 114.09 60.9726 114.09 60.9726Z" fill="#D9FFFF"/>
<path d="M101.655 59.2248C101.655 59.2248 101.659 59.1929 101.659 59.1887C101.659 59.1901 101.658 59.2012 101.655 59.2248Z" fill="#D9FFFF"/>
<path d="M101.655 59.2248C101.655 59.2248 101.659 59.1929 101.659 59.1887C101.659 59.1901 101.658 59.2012 101.655 59.2248Z" fill="#D9FFFF"/>
<path d="M108.307 56.3911C109.545 58.2988 111.683 60.0247 114.082 60.9772C114.06 61.1578 113.94 62.1588 113.386 66.7732C112.647 72.9288 106.92 75.1559 106.031 75.4967C105.276 74.974 100.226 71.1841 100.965 65.0271C101.519 60.4127 101.639 59.4117 101.661 59.2312C104.206 58.9738 106.661 57.8933 108.307 56.3911Z" fill="white"/>
<path d="M107.654 59.6567C107.651 59.6594 107.647 59.6621 107.643 59.6648C106.448 60.5904 104.87 61.2317 103.188 61.4688L102.717 65.4054C102.501 67.2066 102.967 68.9257 104.102 70.5155C104.815 71.5151 105.606 72.1955 106.045 72.5336C106.064 72.5484 106.085 72.5646 106.103 72.5781C106.589 72.3854 107.557 71.9408 108.524 71.1365C109.997 69.9132 110.853 68.3801 111.068 66.5788L111.54 62.6422C109.97 61.9457 108.592 60.8854 107.654 59.6567Z" fill="#F7AF0C"/>
<path d="M104.247 44.3132C104.923 46.0134 107.175 47.5128 109.717 48.9718C114.878 48.1446 118.837 46.5792 122.711 44.359C126.522 44.3415 129.264 45.7776 132.083 46.8378L109.582 50.4254L96.3645 45.5378C98.1234 44.9114 100.64 44.487 104.247 44.3132Z" fill="#66B8FF"/>
<path d="M181.552 90.0574C181.551 89.947 181.551 89.8993 181.551 89.8884C181.551 89.9089 181.552 90.0574 181.552 90.0574Z" fill="#D9FFFF"/>
<path d="M181.552 90.0574C181.551 89.947 181.551 89.8993 181.551 89.8884C181.551 89.9089 181.552 90.0574 181.552 90.0574Z" fill="#D9FFFF"/>
<path d="M115.168 90.7708C115.168 90.7708 115.166 90.6227 115.166 90.6023C115.165 90.6132 115.166 90.6621 115.168 90.7708Z" fill="#D9FFFF"/>
<path d="M115.168 90.7708C115.168 90.7708 115.166 90.6227 115.166 90.6023C115.165 90.6132 115.166 90.6621 115.168 90.7708Z" fill="#D9FFFF"/>
<path d="M148.105 72.782C155.895 80.8129 168.285 87.3564 181.514 90.094C181.524 90.9549 181.578 95.7201 181.828 117.69C182.161 146.996 153.655 161.502 149.23 163.728C144.914 161.824 115.854 147.71 115.522 118.404C115.273 96.4342 115.218 91.6676 115.208 90.8081C128.37 87.7876 140.498 80.9786 148.105 72.782Z" fill="white"/>
<path d="M148.22 78.0747C155.841 84.8028 166.373 90.0625 177.934 92.8917L178.216 117.723C178.345 129.084 173.785 139.393 164.665 148.363C158.672 154.257 152.354 157.928 149.145 159.583C149.006 159.516 148.854 159.439 148.704 159.365L148.155 78.1353C148.176 78.1138 148.199 78.0949 148.22 78.0747Z" fill="#3355FF"/>
<path d="M148.154 78.1328L148.703 159.362C145.344 157.686 139.237 154.216 133.374 148.699C124.052 139.928 119.26 129.72 119.131 118.359L118.849 93.5277C130.31 90.4601 140.692 84.997 148.154 78.1328Z" fill="#617BFF"/>
<path d="M134.986 114.02L135.117 133.257C135.132 135.399 161.952 135.227 161.937 133.085L161.806 113.847L134.986 114.02ZM145.133 121.217C145.12 119.432 146.588 117.982 148.418 117.971C150.249 117.959 151.748 119.39 151.759 121.175C151.767 122.479 150.968 123.617 149.822 124.129L149.859 129.594C149.865 130.32 149.263 130.928 148.506 130.932C147.761 130.937 147.152 130.338 147.146 129.611L147.109 124.159C145.944 123.661 145.141 122.533 145.133 121.217Z" fill="white"/>
<path d="M137.324 112.636L140.039 112.618L140.031 111.323C140 106.836 143.72 103.159 148.322 103.13C152.925 103.1 156.694 106.727 156.725 111.216L156.733 112.51L159.447 112.493L159.439 111.198C159.399 105.25 154.405 100.443 148.304 100.482C142.205 100.521 137.276 105.393 137.316 111.341L137.324 112.636Z" fill="white"/>
</svg>
