<svg width="40" height="40" viewBox="0 0 40 40" fill="none" xmlns="http://www.w3.org/2000/svg">
<g clip-path="url(#clip0_1_408)">
<path d="M24.6667 33.2334H22.7667V29.4334H30.5667V35.3334C30.5667 36.4932 31.5069 37.4334 32.6667 37.4334H38C39.1598 37.4334 40.1 36.4932 40.1 35.3334V22.0001C40.1 20.8403 39.1598 19.9001 38 19.9001H37.4333V6.00008V5.99996C37.4311 4.10483 35.8953 2.56898 34.0001 2.56675H34L6 2.56675L5.99988 2.56675C4.10475 2.56898 2.5689 4.10483 2.56667 5.99996V6.00008V15.9001H2C0.840188 15.9001 -0.1 16.8403 -0.1 18.0001V35.3334C-0.1 36.4932 0.840188 37.4334 2 37.4334H27.3333C27.7567 37.4334 28.1 37.0901 28.1 36.6667V36.6666C28.0978 34.7715 26.5619 33.2356 24.6668 33.2334H24.6667ZM16.1 35.3334V34.7667H24.6665C25.4234 34.7676 26.1028 35.216 26.4053 35.9001H16.0158C16.0697 35.7165 16.0981 35.5262 16.1 35.3344V35.3334ZM4.1 15.9001V6.00008C4.1 4.95073 4.95065 4.10008 6 4.10008H34C35.0494 4.10008 35.9 4.95073 35.9 6.00008V19.9001H32.6667C31.5069 19.9001 30.5667 20.8403 30.5667 22.0001V22.5667H16.1L16.1 18.0001L16.1 17.9994C16.0978 17.6944 16.0284 17.3941 15.8973 17.1195L17.9775 15.0394C18.4053 14.6271 18.8607 14.1805 19.3111 13.7343C20.1507 12.9024 20.974 12.0708 21.5714 11.4638C21.87 11.1603 22.1123 10.913 22.2718 10.7498L22.4459 10.5715L22.4692 10.5476L22.4754 10.5415L22.4754 10.5415L22.4766 10.5402L22.4844 10.5321L22.4864 10.5299C22.4929 10.5218 22.4746 10.3855 22.3448 10.3891L22.3412 10.3925L22.3404 10.3933L22.3372 10.3965L22.327 10.407L17.8373 14.8966C17.4693 15.2513 17.1219 15.58 16.8161 15.8608C16.4854 16.1644 16.2049 16.4103 15.9996 16.5719C15.8964 16.6531 15.8155 16.7105 15.7584 16.7432C15.7456 16.7506 15.735 16.7561 15.7265 16.7601C15.5785 16.6001 15.5523 16.4742 15.5385 16.408L15.5379 16.4054C15.5377 16.4042 15.5374 16.4028 15.5371 16.4013C15.534 16.3861 15.5286 16.3596 15.5189 16.339C15.5129 16.3262 15.499 16.301 15.4693 16.2845C15.4358 16.2657 15.4023 16.2688 15.3801 16.2756C15.3603 16.2816 15.3446 16.2918 15.3348 16.2987C15.324 16.3064 15.3132 16.3154 15.3029 16.3246C15.2963 16.3304 15.2891 16.337 15.2813 16.3442L14.8933 16.1003C14.8876 16.0957 14.8811 16.0916 14.8741 16.0883L14.8219 16.0554L14.8105 16.0673C14.5545 15.9578 14.279 15.9009 14.0003 15.9001H14H4.1ZM14.9295 16.1989L14.9295 16.1988L14.9295 16.1989ZM15.6992 16.7703C15.6993 16.7702 15.7003 16.77 15.7021 16.7698C15.7001 16.7703 15.6992 16.7704 15.6992 16.7703ZM22.4823 10.5342C22.483 10.5336 22.4828 10.5337 22.4822 10.5343L22.4823 10.5342ZM14.5667 35.3334C14.5667 35.6464 14.3129 35.9001 14 35.9001H2C1.68706 35.9001 1.43333 35.6464 1.43333 35.3334V34.7667H14.5667V35.3334ZM14.5667 33.2334H1.43333V18.0001C1.43333 17.6871 1.68706 17.4334 2 17.4334H14C14.3129 17.4334 14.5667 17.6871 14.5667 18.0001V33.2334ZM16.1 33.2334V29.4334H17.2333V33.2334H16.1ZM18.7667 33.2334V29.4334H21.2333V33.2334H18.7667ZM30.5667 27.9001H16.1V24.1001H30.5667V27.9001ZM38.5667 35.3334C38.5667 35.6464 38.3129 35.9001 38 35.9001H32.6667C32.3537 35.9001 32.1 35.6464 32.1 35.3334V34.7667H38.5667V35.3334ZM38.5667 33.2334H32.1V22.0001C32.1 21.6871 32.3537 21.4334 32.6667 21.4334H38C38.3129 21.4334 38.5667 21.6871 38.5667 22.0001V33.2334Z" fill="#3355FF" stroke="#3355FF" stroke-width="0.2"/>
<path d="M20.0132 25.3333H20.0065C19.6383 25.3351 19.3413 25.6351 19.3432 26.0033C19.345 26.3714 19.645 26.6684 20.0132 26.6666C20.3813 26.6666 20.6798 26.3681 20.6798 25.9999C20.6798 25.6318 20.3813 25.3333 20.0132 25.3333Z" fill="#3355FF"/>
<path d="M21.3333 5.33325H18.6667C18.2985 5.33325 18 5.63175 18 5.99992C18 6.36809 18.2985 6.66658 18.6667 6.66658H21.3333C21.7015 6.66658 22 6.36809 22 5.99992C22 5.63175 21.7015 5.33325 21.3333 5.33325Z" fill="#3355FF"/>
</g>
<defs>
<clipPath id="clip0_1_408">
<rect width="40" height="40" fill="white"/>
</clipPath>
</defs>
</svg>
