<svg width="175" height="61" viewBox="0 0 175 61" fill="none" xmlns="http://www.w3.org/2000/svg">
<path d="M97.818 30.4419C97.818 32.4848 97.4985 34.4127 96.8303 36.1966C96.1621 38.0094 95.2324 39.5632 93.9832 40.9155C92.7339 42.2679 91.2232 43.3325 89.393 44.1382C87.5627 44.9438 85.5 45.3179 83.1758 45.3179C80.8517 45.3179 78.789 44.915 76.9587 44.1382C75.1284 43.3325 73.6177 42.2679 72.3685 40.9155C71.1193 39.5632 70.1605 37.9806 69.5214 36.1966C68.8823 34.3839 68.5627 32.4848 68.5627 30.4419C68.5627 28.4278 68.8823 26.4999 69.5214 24.6872C70.1605 22.8745 71.1193 21.2919 72.3685 19.9396C73.6177 18.5872 75.1575 17.5226 76.9587 16.7169C78.789 15.9113 80.8517 15.5372 83.1758 15.5372C85.5 15.5372 87.5627 15.94 89.393 16.7169C91.2232 17.5226 92.7339 18.5872 93.9832 19.9396C95.2324 21.2919 96.1621 22.8745 96.8303 24.6872C97.4985 26.4999 97.818 28.4278 97.818 30.4419ZM83.2049 40.599C84.6284 40.599 85.8777 40.34 86.9235 39.8221C87.9985 39.3042 88.87 38.5849 89.5963 37.6929C90.3226 36.7721 90.8456 35.7075 91.1942 34.4702C91.5428 33.233 91.7171 31.8806 91.7171 30.4419C91.7171 29.0032 91.5428 27.6509 91.1942 26.4136C90.8456 25.1764 90.3226 24.1117 89.5963 23.191C88.87 22.2702 87.9985 21.5797 86.9235 21.0617C85.8486 20.5438 84.6284 20.2848 83.2049 20.2848C81.7813 20.2848 80.5321 20.5438 79.4862 21.0617C78.4113 21.5797 77.5397 22.299 76.8134 23.191C76.0871 24.1117 75.5642 25.1764 75.2156 26.4136C74.867 27.6509 74.6927 29.0032 74.6927 30.4419C74.6927 31.8806 74.867 33.233 75.2156 34.4702C75.5642 35.7075 76.0871 36.7721 76.8134 37.6929C77.5397 38.6136 78.4113 39.3042 79.4862 39.8221C80.5321 40.34 81.7813 40.599 83.2049 40.599ZM101.653 44.8287V16.0551H107.754V29.8665L117.835 16.0551H124.894L114.203 30.2693L125.621 44.8287H118.067L107.725 30.7009V44.8287H101.653ZM128.061 16.0551H145.521V20.8603H134.191V27.8235H144.998V32.5999H134.191V40.0235H145.667V44.8287H128.09V16.0551H128.061ZM167.281 16.0551H173.905L164.347 30.3556L174.079 44.8287H167.398L161.122 35.0169L154.847 44.8287H148.165L157.898 30.3556L148.339 16.0551H154.963L161.122 25.7806L167.281 16.0551Z" fill="#5B5B5B"/>
<path d="M30.7951 27.6227C38.4967 27.6227 44.7401 21.4391 44.7401 13.8113C44.7401 6.18354 38.4967 0 30.7951 0C23.0935 0 16.8502 6.18354 16.8502 13.8113C16.8502 21.4391 23.0935 27.6227 30.7951 27.6227Z" fill="#BCBABA"/>
<path d="M30.7951 61C38.4967 61 44.7401 54.8164 44.7401 47.1886C44.7401 39.5608 38.4967 33.3773 30.7951 33.3773C23.0935 33.3773 16.8502 39.5608 16.8502 47.1886C16.8502 54.8164 23.0935 61 30.7951 61Z" fill="#A4A4A4"/>
<path d="M47.6453 44.3114C55.3468 44.3114 61.5902 38.1279 61.5902 30.5001C61.5902 22.8723 55.3468 16.6888 47.6453 16.6888C39.9437 16.6888 33.7003 22.8723 33.7003 30.5001C33.7003 38.1279 39.9437 44.3114 47.6453 44.3114Z" fill="#CECCCC"/>
<path d="M13.945 44.3114C21.6465 44.3114 27.8899 38.1279 27.8899 30.5001C27.8899 22.8723 21.6465 16.6888 13.945 16.6888C6.24337 16.6888 0 22.8723 0 30.5001C0 38.1279 6.24337 44.3114 13.945 44.3114Z" fill="#5B5B5B"/>
<path fill-rule="evenodd" clip-rule="evenodd" d="M27.4978 27.2347C22.4448 26.0214 18.4674 22.0821 17.2423 17.0775C22.2953 18.2908 26.2728 22.2301 27.4978 27.2347Z" fill="#979797"/>
<path fill-rule="evenodd" clip-rule="evenodd" d="M17.2423 43.9235C18.4674 38.9189 22.4448 34.9796 27.4978 33.7663C26.2728 38.7709 22.2953 42.7102 17.2423 43.9235Z" fill="#979797"/>
<path fill-rule="evenodd" clip-rule="evenodd" d="M34.0925 33.7663C39.1455 34.9796 43.123 38.9189 44.348 43.9235C39.295 42.7102 35.3175 38.7709 34.0925 33.7663Z" fill="#BCBABA"/>
<path fill-rule="evenodd" clip-rule="evenodd" d="M44.348 17.0775C43.123 22.0821 39.1455 26.0214 34.0925 27.2347C35.3175 22.2301 39.295 18.2908 44.348 17.0775Z" fill="#5B5B5B"/>
</svg>
