<svg width="40" height="41" viewBox="0 0 40 41" fill="none" xmlns="http://www.w3.org/2000/svg">
<path d="M1.03204 33.6738C0.898699 33.6738 0.823696 33.6722 0.810363 33.6722C0.350347 33.659 -0.0113315 33.2796 0.00033554 32.8243C0.0136693 32.369 0.383682 32.0424 0.857031 32.0226C1.13371 32.0193 29.4397 32.5174 35.8599 7.89692C35.9749 7.45482 36.4282 7.19253 36.8749 7.30471C37.3199 7.41853 37.5883 7.86888 37.4733 8.30932C31.0297 33.0255 3.7788 33.6738 1.03204 33.6738Z" fill="#3355FF"/>
<path d="M39.1683 13.2117C38.88 13.2117 38.5999 13.0648 38.4449 12.7992L36.3615 9.22729L32.7531 11.2896C32.3548 11.5156 31.8447 11.382 31.6147 10.9877C31.3847 10.5934 31.5214 10.0885 31.9197 9.86083L36.2499 7.38606C36.6466 7.15674 37.1566 7.29202 37.3882 7.68799L39.8883 11.9743C40.1183 12.3686 39.9817 12.8735 39.5833 13.1011C39.4533 13.177 39.31 13.2117 39.1683 13.2117Z" fill="#3355FF"/>
<path d="M35.8348 40.2708C35.3748 40.2708 35.0015 39.9012 35.0015 39.4459V18.0006C35.0015 17.5453 35.3748 17.1758 35.8348 17.1758C36.2949 17.1758 36.6682 17.5453 36.6682 18.0006V39.4459C36.6682 39.9012 36.2949 40.2708 35.8348 40.2708Z" fill="#3355FF"/>
<path d="M25.8346 40.2715C25.3746 40.2715 25.0012 39.902 25.0012 39.4467V29.5489C25.0012 29.0936 25.3746 28.7241 25.8346 28.7241C26.2946 28.7241 26.668 29.0936 26.668 29.5489V39.4467C26.668 39.902 26.2946 40.2715 25.8346 40.2715Z" fill="#3355FF"/>
<path d="M15.8342 40.2722C15.3742 40.2722 15.0009 39.9027 15.0009 39.4473V34.4978C15.0009 34.0424 15.3742 33.6729 15.8342 33.6729C16.2943 33.6729 16.6676 34.0424 16.6676 34.4978V39.4473C16.6676 39.9027 16.2943 40.2722 15.8342 40.2722Z" fill="#3355FF"/>
<path d="M5.83386 40.2664C5.37384 40.2664 5.00049 39.8973 5.00049 39.4425V36.971C5.00049 36.5163 5.37384 36.1472 5.83386 36.1472C6.29388 36.1472 6.66724 36.5163 6.66724 36.971V39.4425C6.66724 39.8973 6.29388 40.2664 5.83386 40.2664Z" fill="#3355FF"/>
<path d="M12.0974 20.207C11.8841 20.207 11.6708 20.1262 11.5074 19.9662L5.51388 14.0325C5.20054 13.7223 5.18721 13.2225 5.48388 12.8975L10.394 7.50158C13.8825 3.51442 19.416 0.766137 24.1528 0.678706C24.3495 0.652312 24.5978 0.762837 24.7578 0.919552C24.9179 1.07957 25.0045 1.29567 25.0012 1.51837C24.9129 6.20662 22.1361 11.6834 18.0943 15.146L12.6541 19.9959C12.4974 20.1377 12.2974 20.207 12.0974 20.207ZM7.25227 13.4205L12.1291 18.2473L16.9926 13.9104C20.4527 10.946 22.8961 6.41777 23.2828 2.37947C19.2027 2.76219 14.6292 5.18055 11.6441 8.59363L7.25227 13.4205Z" fill="#3355FF"/>
<path d="M14.3408 24.1222C14.2658 24.1222 14.1891 24.1123 14.1141 24.0908C13.8241 24.0084 13.6008 23.7807 13.5291 23.4887L12.3508 18.6222C12.2441 18.1801 12.5208 17.7346 12.9674 17.6274C13.4191 17.5235 13.8658 17.7957 13.9725 18.2378L14.7542 21.4695C16.2025 19.2276 16.4909 16.3588 16.5209 14.6811C16.5292 14.2258 16.9259 13.8694 17.3692 13.8711C17.8293 13.8777 18.1959 14.2555 18.1876 14.7091C18.1176 18.6123 16.9609 21.8687 14.9292 23.8797C14.7708 24.0364 14.5575 24.1222 14.3408 24.1222Z" fill="#3355FF"/>
<path d="M7.06897 13.2235C7.00396 13.2235 6.93896 13.2169 6.87396 13.2004L1.95715 12.0339C1.6638 11.9646 1.43046 11.7452 1.34879 11.4565C1.26713 11.1694 1.34879 10.8609 1.56047 10.6497C3.5922 8.63843 6.88229 7.4934 10.8274 7.4241C11.2891 7.38285 11.6674 7.77883 11.6741 8.2342C11.6808 8.68958 11.3174 9.06576 10.8557 9.074C9.15903 9.1037 6.26227 9.38914 3.99721 10.8229L7.2623 11.5967C7.70898 11.7023 7.98566 12.1478 7.87899 12.5916C7.78565 12.9694 7.44564 13.2235 7.06897 13.2235Z" fill="#3355FF"/>
<path d="M0.833722 25.4255C0.615381 25.4255 0.403707 25.3398 0.243701 25.1847C0.0270267 24.9702 -0.0529761 24.6551 0.0353604 24.3648C0.31037 23.4541 1.74042 18.858 2.86046 17.7494C4.20884 16.4131 6.40392 16.4115 7.7573 17.7494C9.10735 19.0857 9.10735 21.26 7.7573 22.5963C6.63893 23.7049 1.99376 25.1187 1.07373 25.3909C0.993728 25.414 0.913725 25.4255 0.833722 25.4255ZM5.30888 18.3961C4.84886 18.3961 4.38885 18.5693 4.03884 18.9158C3.56549 19.3843 2.75212 21.4497 2.11543 23.332C4.01717 22.7019 6.10558 21.8968 6.57726 21.4299C7.27728 20.737 7.27728 19.6086 6.57726 18.9174C6.22725 18.5693 5.76723 18.3961 5.30888 18.3961Z" fill="#3355FF"/>
</svg>
